<?xml version="1.0" encoding="utf-8" standalone="no"?>
<!DOCTYPE svg PUBLIC "-//W3C//DTD SVG 1.1//EN"
  "http://www.w3.org/Graphics/SVG/1.1/DTD/svg11.dtd">
<svg height="390.914375pt" version="1.1" viewBox="0 0 506.928125 390.914375" width="506.928125pt" xmlns="http://www.w3.org/2000/svg" xmlns:xlink="http://www.w3.org/1999/xlink">
 <metadata>
  <rdf:RDF xmlns:cc="http://creativecommons.org/ns#" xmlns:dc="http://purl.org/dc/elements/1.1/" xmlns:rdf="http://www.w3.org/1999/02/22-rdf-syntax-ns#">
   <cc:Work>
    <dc:type rdf:resource="http://purl.org/dc/dcmitype/StillImage"/>
    <dc:date>2023-06-10T21:06:33.018649</dc:date>
    <dc:format>image/svg+xml</dc:format>
    <dc:creator>
     <cc:Agent>
      <dc:title>Matplotlib v3.4.2, https://matplotlib.org/</dc:title>
     </cc:Agent>
    </dc:creator>
   </cc:Work>
  </rdf:RDF>
 </metadata>
 <defs>
  <style type="text/css">*{stroke-linecap:butt;stroke-linejoin:round;}</style>
 </defs>
 <g id="figure_1">
  <g id="patch_1">
   <path d="M 0 390.914375 
L 506.928125 390.914375 
L 506.928125 0 
L 0 0 
z
" style="fill:#ffffff;"/>
  </g>
  <g id="axes_1">
   <g id="patch_2">
    <path d="M 53.328125 354.958125 
L 499.728125 354.958125 
L 499.728125 22.318125 
L 53.328125 22.318125 
z
" style="fill:#ffffff;"/>
   </g>
   <g id="matplotlib.axis_1">
    <g id="xtick_1">
     <g id="line2d_1">
      <defs>
       <path d="M 0 0 
L 0 2 
" id="m33d1c15119" style="stroke:#000000;stroke-width:0.6;"/>
      </defs>
      <g>
       <use style="stroke:#000000;stroke-width:0.6;" x="73.619034" xlink:href="#m33d1c15119" y="354.958125"/>
      </g>
     </g>
     <g id="text_1">
      <!-- 10K -->
      <g transform="translate(63.977628 367.956562)scale(0.1 -0.1)">
       <defs>
        <path d="M 794 531 
L 1825 531 
L 1825 4091 
L 703 3866 
L 703 4441 
L 1819 4666 
L 2450 4666 
L 2450 531 
L 3481 531 
L 3481 0 
L 794 0 
L 794 531 
z
" id="DejaVuSans-31" transform="scale(0.015625)"/>
        <path d="M 2034 4250 
Q 1547 4250 1301 3770 
Q 1056 3291 1056 2328 
Q 1056 1369 1301 889 
Q 1547 409 2034 409 
Q 2525 409 2770 889 
Q 3016 1369 3016 2328 
Q 3016 3291 2770 3770 
Q 2525 4250 2034 4250 
z
M 2034 4750 
Q 2819 4750 3233 4129 
Q 3647 3509 3647 2328 
Q 3647 1150 3233 529 
Q 2819 -91 2034 -91 
Q 1250 -91 836 529 
Q 422 1150 422 2328 
Q 422 3509 836 4129 
Q 1250 4750 2034 4750 
z
" id="DejaVuSans-30" transform="scale(0.015625)"/>
        <path d="M 628 4666 
L 1259 4666 
L 1259 2694 
L 3353 4666 
L 4166 4666 
L 1850 2491 
L 4331 0 
L 3500 0 
L 1259 2247 
L 1259 0 
L 628 0 
L 628 4666 
z
" id="DejaVuSans-4b" transform="scale(0.015625)"/>
       </defs>
       <use xlink:href="#DejaVuSans-31"/>
       <use x="63.623047" xlink:href="#DejaVuSans-30"/>
       <use x="127.246094" xlink:href="#DejaVuSans-4b"/>
      </g>
     </g>
    </g>
    <g id="xtick_2">
     <g id="line2d_2">
      <g>
       <use style="stroke:#000000;stroke-width:0.6;" x="107.437216" xlink:href="#m33d1c15119" y="354.958125"/>
      </g>
     </g>
     <g id="text_2">
      <!-- 20K -->
      <g transform="translate(97.79581 367.956562)scale(0.1 -0.1)">
       <defs>
        <path d="M 1228 531 
L 3431 531 
L 3431 0 
L 469 0 
L 469 531 
Q 828 903 1448 1529 
Q 2069 2156 2228 2338 
Q 2531 2678 2651 2914 
Q 2772 3150 2772 3378 
Q 2772 3750 2511 3984 
Q 2250 4219 1831 4219 
Q 1534 4219 1204 4116 
Q 875 4013 500 3803 
L 500 4441 
Q 881 4594 1212 4672 
Q 1544 4750 1819 4750 
Q 2544 4750 2975 4387 
Q 3406 4025 3406 3419 
Q 3406 3131 3298 2873 
Q 3191 2616 2906 2266 
Q 2828 2175 2409 1742 
Q 1991 1309 1228 531 
z
" id="DejaVuSans-32" transform="scale(0.015625)"/>
       </defs>
       <use xlink:href="#DejaVuSans-32"/>
       <use x="63.623047" xlink:href="#DejaVuSans-30"/>
       <use x="127.246094" xlink:href="#DejaVuSans-4b"/>
      </g>
     </g>
    </g>
    <g id="xtick_3">
     <g id="line2d_3">
      <g>
       <use style="stroke:#000000;stroke-width:0.6;" x="141.255398" xlink:href="#m33d1c15119" y="354.958125"/>
      </g>
     </g>
     <g id="text_3">
      <!-- 50K -->
      <g transform="translate(131.613991 367.956562)scale(0.1 -0.1)">
       <defs>
        <path d="M 691 4666 
L 3169 4666 
L 3169 4134 
L 1269 4134 
L 1269 2991 
Q 1406 3038 1543 3061 
Q 1681 3084 1819 3084 
Q 2600 3084 3056 2656 
Q 3513 2228 3513 1497 
Q 3513 744 3044 326 
Q 2575 -91 1722 -91 
Q 1428 -91 1123 -41 
Q 819 9 494 109 
L 494 744 
Q 775 591 1075 516 
Q 1375 441 1709 441 
Q 2250 441 2565 725 
Q 2881 1009 2881 1497 
Q 2881 1984 2565 2268 
Q 2250 2553 1709 2553 
Q 1456 2553 1204 2497 
Q 953 2441 691 2322 
L 691 4666 
z
" id="DejaVuSans-35" transform="scale(0.015625)"/>
       </defs>
       <use xlink:href="#DejaVuSans-35"/>
       <use x="63.623047" xlink:href="#DejaVuSans-30"/>
       <use x="127.246094" xlink:href="#DejaVuSans-4b"/>
      </g>
     </g>
    </g>
    <g id="xtick_4">
     <g id="line2d_4">
      <g>
       <use style="stroke:#000000;stroke-width:0.6;" x="175.07358" xlink:href="#m33d1c15119" y="354.958125"/>
      </g>
     </g>
     <g id="text_4">
      <!-- 100K -->
      <g transform="translate(162.250923 367.956562)scale(0.1 -0.1)">
       <use xlink:href="#DejaVuSans-31"/>
       <use x="63.623047" xlink:href="#DejaVuSans-30"/>
       <use x="127.246094" xlink:href="#DejaVuSans-30"/>
       <use x="190.869141" xlink:href="#DejaVuSans-4b"/>
      </g>
     </g>
    </g>
    <g id="xtick_5">
     <g id="line2d_5">
      <g>
       <use style="stroke:#000000;stroke-width:0.6;" x="208.891761" xlink:href="#m33d1c15119" y="354.958125"/>
      </g>
     </g>
     <g id="text_5">
      <!-- 200K -->
      <g transform="translate(196.069105 367.956562)scale(0.1 -0.1)">
       <use xlink:href="#DejaVuSans-32"/>
       <use x="63.623047" xlink:href="#DejaVuSans-30"/>
       <use x="127.246094" xlink:href="#DejaVuSans-30"/>
       <use x="190.869141" xlink:href="#DejaVuSans-4b"/>
      </g>
     </g>
    </g>
    <g id="xtick_6">
     <g id="line2d_6">
      <g>
       <use style="stroke:#000000;stroke-width:0.6;" x="242.709943" xlink:href="#m33d1c15119" y="354.958125"/>
      </g>
     </g>
     <g id="text_6">
      <!-- 500K -->
      <g transform="translate(229.887287 367.956562)scale(0.1 -0.1)">
       <use xlink:href="#DejaVuSans-35"/>
       <use x="63.623047" xlink:href="#DejaVuSans-30"/>
       <use x="127.246094" xlink:href="#DejaVuSans-30"/>
       <use x="190.869141" xlink:href="#DejaVuSans-4b"/>
      </g>
     </g>
    </g>
    <g id="xtick_7">
     <g id="line2d_7">
      <g>
       <use style="stroke:#000000;stroke-width:0.6;" x="276.528125" xlink:href="#m33d1c15119" y="354.958125"/>
      </g>
     </g>
     <g id="text_7">
      <!-- 1M -->
      <g transform="translate(269.032813 367.956562)scale(0.1 -0.1)">
       <defs>
        <path d="M 628 4666 
L 1569 4666 
L 2759 1491 
L 3956 4666 
L 4897 4666 
L 4897 0 
L 4281 0 
L 4281 4097 
L 3078 897 
L 2444 897 
L 1241 4097 
L 1241 0 
L 628 0 
L 628 4666 
z
" id="DejaVuSans-4d" transform="scale(0.015625)"/>
       </defs>
       <use xlink:href="#DejaVuSans-31"/>
       <use x="63.623047" xlink:href="#DejaVuSans-4d"/>
      </g>
     </g>
    </g>
    <g id="xtick_8">
     <g id="line2d_8">
      <g>
       <use style="stroke:#000000;stroke-width:0.6;" x="310.346307" xlink:href="#m33d1c15119" y="354.958125"/>
      </g>
     </g>
     <g id="text_8">
      <!-- 2M -->
      <g transform="translate(302.850994 367.956562)scale(0.1 -0.1)">
       <use xlink:href="#DejaVuSans-32"/>
       <use x="63.623047" xlink:href="#DejaVuSans-4d"/>
      </g>
     </g>
    </g>
    <g id="xtick_9">
     <g id="line2d_9">
      <g>
       <use style="stroke:#000000;stroke-width:0.6;" x="344.164489" xlink:href="#m33d1c15119" y="354.958125"/>
      </g>
     </g>
     <g id="text_9">
      <!-- 5M -->
      <g transform="translate(336.669176 367.956562)scale(0.1 -0.1)">
       <use xlink:href="#DejaVuSans-35"/>
       <use x="63.623047" xlink:href="#DejaVuSans-4d"/>
      </g>
     </g>
    </g>
    <g id="xtick_10">
     <g id="line2d_10">
      <g>
       <use style="stroke:#000000;stroke-width:0.6;" x="377.98267" xlink:href="#m33d1c15119" y="354.958125"/>
      </g>
     </g>
     <g id="text_10">
      <!-- 10M -->
      <g transform="translate(367.306108 367.956562)scale(0.1 -0.1)">
       <use xlink:href="#DejaVuSans-31"/>
       <use x="63.623047" xlink:href="#DejaVuSans-30"/>
       <use x="127.246094" xlink:href="#DejaVuSans-4d"/>
      </g>
     </g>
    </g>
    <g id="xtick_11">
     <g id="line2d_11">
      <g>
       <use style="stroke:#000000;stroke-width:0.6;" x="411.800852" xlink:href="#m33d1c15119" y="354.958125"/>
      </g>
     </g>
     <g id="text_11">
      <!-- 20M -->
      <g transform="translate(401.12429 367.956562)scale(0.1 -0.1)">
       <use xlink:href="#DejaVuSans-32"/>
       <use x="63.623047" xlink:href="#DejaVuSans-30"/>
       <use x="127.246094" xlink:href="#DejaVuSans-4d"/>
      </g>
     </g>
    </g>
    <g id="xtick_12">
     <g id="line2d_12">
      <g>
       <use style="stroke:#000000;stroke-width:0.6;" x="445.619034" xlink:href="#m33d1c15119" y="354.958125"/>
      </g>
     </g>
     <g id="text_12">
      <!-- 50M -->
      <g transform="translate(434.942472 367.956562)scale(0.1 -0.1)">
       <use xlink:href="#DejaVuSans-35"/>
       <use x="63.623047" xlink:href="#DejaVuSans-30"/>
       <use x="127.246094" xlink:href="#DejaVuSans-4d"/>
      </g>
     </g>
    </g>
    <g id="xtick_13">
     <g id="line2d_13">
      <g>
       <use style="stroke:#000000;stroke-width:0.6;" x="479.437216" xlink:href="#m33d1c15119" y="354.958125"/>
      </g>
     </g>
     <g id="text_13">
      <!-- 100M -->
      <g transform="translate(465.579403 367.956562)scale(0.1 -0.1)">
       <use xlink:href="#DejaVuSans-31"/>
       <use x="63.623047" xlink:href="#DejaVuSans-30"/>
       <use x="127.246094" xlink:href="#DejaVuSans-30"/>
       <use x="190.869141" xlink:href="#DejaVuSans-4d"/>
      </g>
     </g>
    </g>
    <g id="text_14">
     <!-- Dataset Size  [rows] -->
     <g transform="translate(226.319531 381.634687)scale(0.1 -0.1)">
      <defs>
       <path d="M 1259 4147 
L 1259 519 
L 2022 519 
Q 2988 519 3436 956 
Q 3884 1394 3884 2338 
Q 3884 3275 3436 3711 
Q 2988 4147 2022 4147 
L 1259 4147 
z
M 628 4666 
L 1925 4666 
Q 3281 4666 3915 4102 
Q 4550 3538 4550 2338 
Q 4550 1131 3912 565 
Q 3275 0 1925 0 
L 628 0 
L 628 4666 
z
" id="DejaVuSans-44" transform="scale(0.015625)"/>
       <path d="M 2194 1759 
Q 1497 1759 1228 1600 
Q 959 1441 959 1056 
Q 959 750 1161 570 
Q 1363 391 1709 391 
Q 2188 391 2477 730 
Q 2766 1069 2766 1631 
L 2766 1759 
L 2194 1759 
z
M 3341 1997 
L 3341 0 
L 2766 0 
L 2766 531 
Q 2569 213 2275 61 
Q 1981 -91 1556 -91 
Q 1019 -91 701 211 
Q 384 513 384 1019 
Q 384 1609 779 1909 
Q 1175 2209 1959 2209 
L 2766 2209 
L 2766 2266 
Q 2766 2663 2505 2880 
Q 2244 3097 1772 3097 
Q 1472 3097 1187 3025 
Q 903 2953 641 2809 
L 641 3341 
Q 956 3463 1253 3523 
Q 1550 3584 1831 3584 
Q 2591 3584 2966 3190 
Q 3341 2797 3341 1997 
z
" id="DejaVuSans-61" transform="scale(0.015625)"/>
       <path d="M 1172 4494 
L 1172 3500 
L 2356 3500 
L 2356 3053 
L 1172 3053 
L 1172 1153 
Q 1172 725 1289 603 
Q 1406 481 1766 481 
L 2356 481 
L 2356 0 
L 1766 0 
Q 1100 0 847 248 
Q 594 497 594 1153 
L 594 3053 
L 172 3053 
L 172 3500 
L 594 3500 
L 594 4494 
L 1172 4494 
z
" id="DejaVuSans-74" transform="scale(0.015625)"/>
       <path d="M 2834 3397 
L 2834 2853 
Q 2591 2978 2328 3040 
Q 2066 3103 1784 3103 
Q 1356 3103 1142 2972 
Q 928 2841 928 2578 
Q 928 2378 1081 2264 
Q 1234 2150 1697 2047 
L 1894 2003 
Q 2506 1872 2764 1633 
Q 3022 1394 3022 966 
Q 3022 478 2636 193 
Q 2250 -91 1575 -91 
Q 1294 -91 989 -36 
Q 684 19 347 128 
L 347 722 
Q 666 556 975 473 
Q 1284 391 1588 391 
Q 1994 391 2212 530 
Q 2431 669 2431 922 
Q 2431 1156 2273 1281 
Q 2116 1406 1581 1522 
L 1381 1569 
Q 847 1681 609 1914 
Q 372 2147 372 2553 
Q 372 3047 722 3315 
Q 1072 3584 1716 3584 
Q 2034 3584 2315 3537 
Q 2597 3491 2834 3397 
z
" id="DejaVuSans-73" transform="scale(0.015625)"/>
       <path d="M 3597 1894 
L 3597 1613 
L 953 1613 
Q 991 1019 1311 708 
Q 1631 397 2203 397 
Q 2534 397 2845 478 
Q 3156 559 3463 722 
L 3463 178 
Q 3153 47 2828 -22 
Q 2503 -91 2169 -91 
Q 1331 -91 842 396 
Q 353 884 353 1716 
Q 353 2575 817 3079 
Q 1281 3584 2069 3584 
Q 2775 3584 3186 3129 
Q 3597 2675 3597 1894 
z
M 3022 2063 
Q 3016 2534 2758 2815 
Q 2500 3097 2075 3097 
Q 1594 3097 1305 2825 
Q 1016 2553 972 2059 
L 3022 2063 
z
" id="DejaVuSans-65" transform="scale(0.015625)"/>
       <path id="DejaVuSans-20" transform="scale(0.015625)"/>
       <path d="M 3425 4513 
L 3425 3897 
Q 3066 4069 2747 4153 
Q 2428 4238 2131 4238 
Q 1616 4238 1336 4038 
Q 1056 3838 1056 3469 
Q 1056 3159 1242 3001 
Q 1428 2844 1947 2747 
L 2328 2669 
Q 3034 2534 3370 2195 
Q 3706 1856 3706 1288 
Q 3706 609 3251 259 
Q 2797 -91 1919 -91 
Q 1588 -91 1214 -16 
Q 841 59 441 206 
L 441 856 
Q 825 641 1194 531 
Q 1563 422 1919 422 
Q 2459 422 2753 634 
Q 3047 847 3047 1241 
Q 3047 1584 2836 1778 
Q 2625 1972 2144 2069 
L 1759 2144 
Q 1053 2284 737 2584 
Q 422 2884 422 3419 
Q 422 4038 858 4394 
Q 1294 4750 2059 4750 
Q 2388 4750 2728 4690 
Q 3069 4631 3425 4513 
z
" id="DejaVuSans-53" transform="scale(0.015625)"/>
       <path d="M 603 3500 
L 1178 3500 
L 1178 0 
L 603 0 
L 603 3500 
z
M 603 4863 
L 1178 4863 
L 1178 4134 
L 603 4134 
L 603 4863 
z
" id="DejaVuSans-69" transform="scale(0.015625)"/>
       <path d="M 353 3500 
L 3084 3500 
L 3084 2975 
L 922 459 
L 3084 459 
L 3084 0 
L 275 0 
L 275 525 
L 2438 3041 
L 353 3041 
L 353 3500 
z
" id="DejaVuSans-7a" transform="scale(0.015625)"/>
       <path d="M 550 4863 
L 1875 4863 
L 1875 4416 
L 1125 4416 
L 1125 -397 
L 1875 -397 
L 1875 -844 
L 550 -844 
L 550 4863 
z
" id="DejaVuSans-5b" transform="scale(0.015625)"/>
       <path d="M 2631 2963 
Q 2534 3019 2420 3045 
Q 2306 3072 2169 3072 
Q 1681 3072 1420 2755 
Q 1159 2438 1159 1844 
L 1159 0 
L 581 0 
L 581 3500 
L 1159 3500 
L 1159 2956 
Q 1341 3275 1631 3429 
Q 1922 3584 2338 3584 
Q 2397 3584 2469 3576 
Q 2541 3569 2628 3553 
L 2631 2963 
z
" id="DejaVuSans-72" transform="scale(0.015625)"/>
       <path d="M 1959 3097 
Q 1497 3097 1228 2736 
Q 959 2375 959 1747 
Q 959 1119 1226 758 
Q 1494 397 1959 397 
Q 2419 397 2687 759 
Q 2956 1122 2956 1747 
Q 2956 2369 2687 2733 
Q 2419 3097 1959 3097 
z
M 1959 3584 
Q 2709 3584 3137 3096 
Q 3566 2609 3566 1747 
Q 3566 888 3137 398 
Q 2709 -91 1959 -91 
Q 1206 -91 779 398 
Q 353 888 353 1747 
Q 353 2609 779 3096 
Q 1206 3584 1959 3584 
z
" id="DejaVuSans-6f" transform="scale(0.015625)"/>
       <path d="M 269 3500 
L 844 3500 
L 1563 769 
L 2278 3500 
L 2956 3500 
L 3675 769 
L 4391 3500 
L 4966 3500 
L 4050 0 
L 3372 0 
L 2619 2869 
L 1863 0 
L 1184 0 
L 269 3500 
z
" id="DejaVuSans-77" transform="scale(0.015625)"/>
       <path d="M 1947 4863 
L 1947 -844 
L 622 -844 
L 622 -397 
L 1369 -397 
L 1369 4416 
L 622 4416 
L 622 4863 
L 1947 4863 
z
" id="DejaVuSans-5d" transform="scale(0.015625)"/>
      </defs>
      <use xlink:href="#DejaVuSans-44"/>
      <use x="77.001953" xlink:href="#DejaVuSans-61"/>
      <use x="138.28125" xlink:href="#DejaVuSans-74"/>
      <use x="177.490234" xlink:href="#DejaVuSans-61"/>
      <use x="238.769531" xlink:href="#DejaVuSans-73"/>
      <use x="290.869141" xlink:href="#DejaVuSans-65"/>
      <use x="352.392578" xlink:href="#DejaVuSans-74"/>
      <use x="391.601562" xlink:href="#DejaVuSans-20"/>
      <use x="423.388672" xlink:href="#DejaVuSans-53"/>
      <use x="486.865234" xlink:href="#DejaVuSans-69"/>
      <use x="514.648438" xlink:href="#DejaVuSans-7a"/>
      <use x="567.138672" xlink:href="#DejaVuSans-65"/>
      <use x="628.662109" xlink:href="#DejaVuSans-20"/>
      <use x="660.449219" xlink:href="#DejaVuSans-20"/>
      <use x="692.236328" xlink:href="#DejaVuSans-5b"/>
      <use x="731.25" xlink:href="#DejaVuSans-72"/>
      <use x="770.113281" xlink:href="#DejaVuSans-6f"/>
      <use x="831.294922" xlink:href="#DejaVuSans-77"/>
      <use x="913.082031" xlink:href="#DejaVuSans-73"/>
      <use x="965.181641" xlink:href="#DejaVuSans-5d"/>
     </g>
    </g>
   </g>
   <g id="matplotlib.axis_2">
    <g id="ytick_1">
     <g id="line2d_14">
      <path clip-path="url(#pd45babe138)" d="M 53.328125 339.838125 
L 499.728125 339.838125 
" style="fill:none;stroke:#b0b0b0;stroke-linecap:square;stroke-width:0.8;"/>
     </g>
     <g id="line2d_15">
      <defs>
       <path d="M 0 0 
L -3.5 0 
" id="m65102492a2" style="stroke:#000000;stroke-width:0.8;"/>
      </defs>
      <g>
       <use style="stroke:#000000;stroke-width:0.8;" x="53.328125" xlink:href="#m65102492a2" y="339.838125"/>
      </g>
     </g>
     <g id="text_15">
      <!-- 0 -->
      <g transform="translate(39.965625 343.637344)scale(0.1 -0.1)">
       <use xlink:href="#DejaVuSans-30"/>
      </g>
     </g>
    </g>
    <g id="ytick_2">
     <g id="line2d_16">
      <path clip-path="url(#pd45babe138)" d="M 53.328125 292.182541 
L 499.728125 292.182541 
" style="fill:none;stroke:#b0b0b0;stroke-linecap:square;stroke-width:0.8;"/>
     </g>
     <g id="line2d_17">
      <g>
       <use style="stroke:#000000;stroke-width:0.8;" x="53.328125" xlink:href="#m65102492a2" y="292.182541"/>
      </g>
     </g>
     <g id="text_16">
      <!-- 500 -->
      <g transform="translate(27.240625 295.981759)scale(0.1 -0.1)">
       <use xlink:href="#DejaVuSans-35"/>
       <use x="63.623047" xlink:href="#DejaVuSans-30"/>
       <use x="127.246094" xlink:href="#DejaVuSans-30"/>
      </g>
     </g>
    </g>
    <g id="ytick_3">
     <g id="line2d_18">
      <path clip-path="url(#pd45babe138)" d="M 53.328125 244.526956 
L 499.728125 244.526956 
" style="fill:none;stroke:#b0b0b0;stroke-linecap:square;stroke-width:0.8;"/>
     </g>
     <g id="line2d_19">
      <g>
       <use style="stroke:#000000;stroke-width:0.8;" x="53.328125" xlink:href="#m65102492a2" y="244.526956"/>
      </g>
     </g>
     <g id="text_17">
      <!-- 1000 -->
      <g transform="translate(20.878125 248.326175)scale(0.1 -0.1)">
       <use xlink:href="#DejaVuSans-31"/>
       <use x="63.623047" xlink:href="#DejaVuSans-30"/>
       <use x="127.246094" xlink:href="#DejaVuSans-30"/>
       <use x="190.869141" xlink:href="#DejaVuSans-30"/>
      </g>
     </g>
    </g>
    <g id="ytick_4">
     <g id="line2d_20">
      <path clip-path="url(#pd45babe138)" d="M 53.328125 196.871372 
L 499.728125 196.871372 
" style="fill:none;stroke:#b0b0b0;stroke-linecap:square;stroke-width:0.8;"/>
     </g>
     <g id="line2d_21">
      <g>
       <use style="stroke:#000000;stroke-width:0.8;" x="53.328125" xlink:href="#m65102492a2" y="196.871372"/>
      </g>
     </g>
     <g id="text_18">
      <!-- 1500 -->
      <g transform="translate(20.878125 200.670591)scale(0.1 -0.1)">
       <use xlink:href="#DejaVuSans-31"/>
       <use x="63.623047" xlink:href="#DejaVuSans-35"/>
       <use x="127.246094" xlink:href="#DejaVuSans-30"/>
       <use x="190.869141" xlink:href="#DejaVuSans-30"/>
      </g>
     </g>
    </g>
    <g id="ytick_5">
     <g id="line2d_22">
      <path clip-path="url(#pd45babe138)" d="M 53.328125 149.215787 
L 499.728125 149.215787 
" style="fill:none;stroke:#b0b0b0;stroke-linecap:square;stroke-width:0.8;"/>
     </g>
     <g id="line2d_23">
      <g>
       <use style="stroke:#000000;stroke-width:0.8;" x="53.328125" xlink:href="#m65102492a2" y="149.215787"/>
      </g>
     </g>
     <g id="text_19">
      <!-- 2000 -->
      <g transform="translate(20.878125 153.015006)scale(0.1 -0.1)">
       <use xlink:href="#DejaVuSans-32"/>
       <use x="63.623047" xlink:href="#DejaVuSans-30"/>
       <use x="127.246094" xlink:href="#DejaVuSans-30"/>
       <use x="190.869141" xlink:href="#DejaVuSans-30"/>
      </g>
     </g>
    </g>
    <g id="ytick_6">
     <g id="line2d_24">
      <path clip-path="url(#pd45babe138)" d="M 53.328125 101.560203 
L 499.728125 101.560203 
" style="fill:none;stroke:#b0b0b0;stroke-linecap:square;stroke-width:0.8;"/>
     </g>
     <g id="line2d_25">
      <g>
       <use style="stroke:#000000;stroke-width:0.8;" x="53.328125" xlink:href="#m65102492a2" y="101.560203"/>
      </g>
     </g>
     <g id="text_20">
      <!-- 2500 -->
      <g transform="translate(20.878125 105.359422)scale(0.1 -0.1)">
       <use xlink:href="#DejaVuSans-32"/>
       <use x="63.623047" xlink:href="#DejaVuSans-35"/>
       <use x="127.246094" xlink:href="#DejaVuSans-30"/>
       <use x="190.869141" xlink:href="#DejaVuSans-30"/>
      </g>
     </g>
    </g>
    <g id="ytick_7">
     <g id="line2d_26">
      <path clip-path="url(#pd45babe138)" d="M 53.328125 53.904619 
L 499.728125 53.904619 
" style="fill:none;stroke:#b0b0b0;stroke-linecap:square;stroke-width:0.8;"/>
     </g>
     <g id="line2d_27">
      <g>
       <use style="stroke:#000000;stroke-width:0.8;" x="53.328125" xlink:href="#m65102492a2" y="53.904619"/>
      </g>
     </g>
     <g id="text_21">
      <!-- 3000 -->
      <g transform="translate(20.878125 57.703837)scale(0.1 -0.1)">
       <defs>
        <path d="M 2597 2516 
Q 3050 2419 3304 2112 
Q 3559 1806 3559 1356 
Q 3559 666 3084 287 
Q 2609 -91 1734 -91 
Q 1441 -91 1130 -33 
Q 819 25 488 141 
L 488 750 
Q 750 597 1062 519 
Q 1375 441 1716 441 
Q 2309 441 2620 675 
Q 2931 909 2931 1356 
Q 2931 1769 2642 2001 
Q 2353 2234 1838 2234 
L 1294 2234 
L 1294 2753 
L 1863 2753 
Q 2328 2753 2575 2939 
Q 2822 3125 2822 3475 
Q 2822 3834 2567 4026 
Q 2313 4219 1838 4219 
Q 1578 4219 1281 4162 
Q 984 4106 628 3988 
L 628 4550 
Q 988 4650 1302 4700 
Q 1616 4750 1894 4750 
Q 2613 4750 3031 4423 
Q 3450 4097 3450 3541 
Q 3450 3153 3228 2886 
Q 3006 2619 2597 2516 
z
" id="DejaVuSans-33" transform="scale(0.015625)"/>
       </defs>
       <use xlink:href="#DejaVuSans-33"/>
       <use x="63.623047" xlink:href="#DejaVuSans-30"/>
       <use x="127.246094" xlink:href="#DejaVuSans-30"/>
       <use x="190.869141" xlink:href="#DejaVuSans-30"/>
      </g>
     </g>
    </g>
    <g id="text_22">
     <!-- Memory  [MB] -->
     <g transform="translate(14.798438 223.7975)rotate(-90)scale(0.1 -0.1)">
      <defs>
       <path d="M 3328 2828 
Q 3544 3216 3844 3400 
Q 4144 3584 4550 3584 
Q 5097 3584 5394 3201 
Q 5691 2819 5691 2113 
L 5691 0 
L 5113 0 
L 5113 2094 
Q 5113 2597 4934 2840 
Q 4756 3084 4391 3084 
Q 3944 3084 3684 2787 
Q 3425 2491 3425 1978 
L 3425 0 
L 2847 0 
L 2847 2094 
Q 2847 2600 2669 2842 
Q 2491 3084 2119 3084 
Q 1678 3084 1418 2786 
Q 1159 2488 1159 1978 
L 1159 0 
L 581 0 
L 581 3500 
L 1159 3500 
L 1159 2956 
Q 1356 3278 1631 3431 
Q 1906 3584 2284 3584 
Q 2666 3584 2933 3390 
Q 3200 3197 3328 2828 
z
" id="DejaVuSans-6d" transform="scale(0.015625)"/>
       <path d="M 2059 -325 
Q 1816 -950 1584 -1140 
Q 1353 -1331 966 -1331 
L 506 -1331 
L 506 -850 
L 844 -850 
Q 1081 -850 1212 -737 
Q 1344 -625 1503 -206 
L 1606 56 
L 191 3500 
L 800 3500 
L 1894 763 
L 2988 3500 
L 3597 3500 
L 2059 -325 
z
" id="DejaVuSans-79" transform="scale(0.015625)"/>
       <path d="M 1259 2228 
L 1259 519 
L 2272 519 
Q 2781 519 3026 730 
Q 3272 941 3272 1375 
Q 3272 1813 3026 2020 
Q 2781 2228 2272 2228 
L 1259 2228 
z
M 1259 4147 
L 1259 2741 
L 2194 2741 
Q 2656 2741 2882 2914 
Q 3109 3088 3109 3444 
Q 3109 3797 2882 3972 
Q 2656 4147 2194 4147 
L 1259 4147 
z
M 628 4666 
L 2241 4666 
Q 2963 4666 3353 4366 
Q 3744 4066 3744 3513 
Q 3744 3084 3544 2831 
Q 3344 2578 2956 2516 
Q 3422 2416 3680 2098 
Q 3938 1781 3938 1306 
Q 3938 681 3513 340 
Q 3088 0 2303 0 
L 628 0 
L 628 4666 
z
" id="DejaVuSans-42" transform="scale(0.015625)"/>
      </defs>
      <use xlink:href="#DejaVuSans-4d"/>
      <use x="86.279297" xlink:href="#DejaVuSans-65"/>
      <use x="147.802734" xlink:href="#DejaVuSans-6d"/>
      <use x="245.214844" xlink:href="#DejaVuSans-6f"/>
      <use x="306.396484" xlink:href="#DejaVuSans-72"/>
      <use x="347.509766" xlink:href="#DejaVuSans-79"/>
      <use x="406.689453" xlink:href="#DejaVuSans-20"/>
      <use x="438.476562" xlink:href="#DejaVuSans-20"/>
      <use x="470.263672" xlink:href="#DejaVuSans-5b"/>
      <use x="509.277344" xlink:href="#DejaVuSans-4d"/>
      <use x="595.556641" xlink:href="#DejaVuSans-42"/>
      <use x="664.160156" xlink:href="#DejaVuSans-5d"/>
     </g>
    </g>
   </g>
   <g id="line2d_28">
    <path clip-path="url(#pd45babe138)" d="M 73.619034 339.006386 
L 107.437216 338.970272 
L 141.255398 338.843687 
L 175.07358 338.641151 
L 208.891761 338.267725 
L 242.709943 337.728621 
L 276.528125 337.753193 
L 310.346307 337.776649 
L 344.164489 337.727504 
L 377.98267 337.757661 
L 411.800852 337.729738 
L 445.619034 337.748353 
L 479.437216 337.729738 
" style="fill:none;stroke:#000000;stroke-dasharray:1.5,0;stroke-dashoffset:0;stroke-width:1.5;"/>
    <defs>
     <path d="M -3 3 
L 3 3 
L 3 -3 
L -3 -3 
z
" id="m223fa9be4c" style="stroke:#ffffff;stroke-linejoin:miter;stroke-width:0.75;"/>
    </defs>
    <g clip-path="url(#pd45babe138)">
     <use style="stroke:#ffffff;stroke-linejoin:miter;stroke-width:0.75;" x="73.619034" xlink:href="#m223fa9be4c" y="339.006386"/>
     <use style="stroke:#ffffff;stroke-linejoin:miter;stroke-width:0.75;" x="107.437216" xlink:href="#m223fa9be4c" y="338.970272"/>
     <use style="stroke:#ffffff;stroke-linejoin:miter;stroke-width:0.75;" x="141.255398" xlink:href="#m223fa9be4c" y="338.843687"/>
     <use style="stroke:#ffffff;stroke-linejoin:miter;stroke-width:0.75;" x="175.07358" xlink:href="#m223fa9be4c" y="338.641151"/>
     <use style="stroke:#ffffff;stroke-linejoin:miter;stroke-width:0.75;" x="208.891761" xlink:href="#m223fa9be4c" y="338.267725"/>
     <use style="stroke:#ffffff;stroke-linejoin:miter;stroke-width:0.75;" x="242.709943" xlink:href="#m223fa9be4c" y="337.728621"/>
     <use style="stroke:#ffffff;stroke-linejoin:miter;stroke-width:0.75;" x="276.528125" xlink:href="#m223fa9be4c" y="337.753193"/>
     <use style="stroke:#ffffff;stroke-linejoin:miter;stroke-width:0.75;" x="310.346307" xlink:href="#m223fa9be4c" y="337.776649"/>
     <use style="stroke:#ffffff;stroke-linejoin:miter;stroke-width:0.75;" x="344.164489" xlink:href="#m223fa9be4c" y="337.727504"/>
     <use style="stroke:#ffffff;stroke-linejoin:miter;stroke-width:0.75;" x="377.98267" xlink:href="#m223fa9be4c" y="337.757661"/>
     <use style="stroke:#ffffff;stroke-linejoin:miter;stroke-width:0.75;" x="411.800852" xlink:href="#m223fa9be4c" y="337.729738"/>
     <use style="stroke:#ffffff;stroke-linejoin:miter;stroke-width:0.75;" x="445.619034" xlink:href="#m223fa9be4c" y="337.748353"/>
     <use style="stroke:#ffffff;stroke-linejoin:miter;stroke-width:0.75;" x="479.437216" xlink:href="#m223fa9be4c" y="337.729738"/>
    </g>
   </g>
   <g id="line2d_29">
    <path clip-path="url(#pd45babe138)" d="M 73.619034 319.443396 
L 107.437216 318.246794 
L 141.255398 316.751973 
L 175.07358 314.856546 
L 208.891761 311.461458 
L 242.709943 297.984236 
L 276.528125 260.590611 
L 310.346307 255.159736 
L 344.164489 249.193853 
L 377.98267 234.53641 
L 411.800852 218.10603 
L 445.619034 152.773202 
L 479.437216 37.438125 
" style="fill:none;stroke:#d62728;stroke-dasharray:7.5,3;stroke-dashoffset:0;stroke-width:1.5;"/>
    <defs>
     <path d="M -3 3 
L 3 3 
L 3 -3 
L -3 -3 
z
" id="m602fb4064b" style="stroke:#ffffff;stroke-linejoin:miter;stroke-width:0.75;"/>
    </defs>
    <g clip-path="url(#pd45babe138)">
     <use style="fill:#d62728;stroke:#ffffff;stroke-linejoin:miter;stroke-width:0.75;" x="73.619034" xlink:href="#m602fb4064b" y="319.443396"/>
     <use style="fill:#d62728;stroke:#ffffff;stroke-linejoin:miter;stroke-width:0.75;" x="107.437216" xlink:href="#m602fb4064b" y="318.246794"/>
     <use style="fill:#d62728;stroke:#ffffff;stroke-linejoin:miter;stroke-width:0.75;" x="141.255398" xlink:href="#m602fb4064b" y="316.751973"/>
     <use style="fill:#d62728;stroke:#ffffff;stroke-linejoin:miter;stroke-width:0.75;" x="175.07358" xlink:href="#m602fb4064b" y="314.856546"/>
     <use style="fill:#d62728;stroke:#ffffff;stroke-linejoin:miter;stroke-width:0.75;" x="208.891761" xlink:href="#m602fb4064b" y="311.461458"/>
     <use style="fill:#d62728;stroke:#ffffff;stroke-linejoin:miter;stroke-width:0.75;" x="242.709943" xlink:href="#m602fb4064b" y="297.984236"/>
     <use style="fill:#d62728;stroke:#ffffff;stroke-linejoin:miter;stroke-width:0.75;" x="276.528125" xlink:href="#m602fb4064b" y="260.590611"/>
     <use style="fill:#d62728;stroke:#ffffff;stroke-linejoin:miter;stroke-width:0.75;" x="310.346307" xlink:href="#m602fb4064b" y="255.159736"/>
     <use style="fill:#d62728;stroke:#ffffff;stroke-linejoin:miter;stroke-width:0.75;" x="344.164489" xlink:href="#m602fb4064b" y="249.193853"/>
     <use style="fill:#d62728;stroke:#ffffff;stroke-linejoin:miter;stroke-width:0.75;" x="377.98267" xlink:href="#m602fb4064b" y="234.53641"/>
     <use style="fill:#d62728;stroke:#ffffff;stroke-linejoin:miter;stroke-width:0.75;" x="411.800852" xlink:href="#m602fb4064b" y="218.10603"/>
     <use style="fill:#d62728;stroke:#ffffff;stroke-linejoin:miter;stroke-width:0.75;" x="445.619034" xlink:href="#m602fb4064b" y="152.773202"/>
     <use style="fill:#d62728;stroke:#ffffff;stroke-linejoin:miter;stroke-width:0.75;" x="479.437216" xlink:href="#m602fb4064b" y="37.438125"/>
    </g>
   </g>
   <g id="line2d_30">
    <path clip-path="url(#pd45babe138)" d="M 73.619034 338.176136 
L 107.437216 338.17837 
L 141.255398 338.183583 
L 175.07358 338.178743 
L 208.891761 338.187678 
L 242.709943 338.185444 
L 276.528125 338.188423 
L 310.346307 338.17018 
L 344.164489 338.17986 
L 377.98267 338.172786 
L 411.800852 338.170552 
L 445.619034 338.163106 
L 479.437216 338.18805 
" style="fill:none;stroke:#17becf;stroke-dasharray:7.5,3;stroke-dashoffset:0;stroke-width:1.5;"/>
    <defs>
     <path d="M -3 3 
L 3 3 
L 3 -3 
L -3 -3 
z
" id="mae682490c4" style="stroke:#ffffff;stroke-linejoin:miter;stroke-width:0.75;"/>
    </defs>
    <g clip-path="url(#pd45babe138)">
     <use style="fill:#17becf;stroke:#ffffff;stroke-linejoin:miter;stroke-width:0.75;" x="73.619034" xlink:href="#mae682490c4" y="338.176136"/>
     <use style="fill:#17becf;stroke:#ffffff;stroke-linejoin:miter;stroke-width:0.75;" x="107.437216" xlink:href="#mae682490c4" y="338.17837"/>
     <use style="fill:#17becf;stroke:#ffffff;stroke-linejoin:miter;stroke-width:0.75;" x="141.255398" xlink:href="#mae682490c4" y="338.183583"/>
     <use style="fill:#17becf;stroke:#ffffff;stroke-linejoin:miter;stroke-width:0.75;" x="175.07358" xlink:href="#mae682490c4" y="338.178743"/>
     <use style="fill:#17becf;stroke:#ffffff;stroke-linejoin:miter;stroke-width:0.75;" x="208.891761" xlink:href="#mae682490c4" y="338.187678"/>
     <use style="fill:#17becf;stroke:#ffffff;stroke-linejoin:miter;stroke-width:0.75;" x="242.709943" xlink:href="#mae682490c4" y="338.185444"/>
     <use style="fill:#17becf;stroke:#ffffff;stroke-linejoin:miter;stroke-width:0.75;" x="276.528125" xlink:href="#mae682490c4" y="338.188423"/>
     <use style="fill:#17becf;stroke:#ffffff;stroke-linejoin:miter;stroke-width:0.75;" x="310.346307" xlink:href="#mae682490c4" y="338.17018"/>
     <use style="fill:#17becf;stroke:#ffffff;stroke-linejoin:miter;stroke-width:0.75;" x="344.164489" xlink:href="#mae682490c4" y="338.17986"/>
     <use style="fill:#17becf;stroke:#ffffff;stroke-linejoin:miter;stroke-width:0.75;" x="377.98267" xlink:href="#mae682490c4" y="338.172786"/>
     <use style="fill:#17becf;stroke:#ffffff;stroke-linejoin:miter;stroke-width:0.75;" x="411.800852" xlink:href="#mae682490c4" y="338.170552"/>
     <use style="fill:#17becf;stroke:#ffffff;stroke-linejoin:miter;stroke-width:0.75;" x="445.619034" xlink:href="#mae682490c4" y="338.163106"/>
     <use style="fill:#17becf;stroke:#ffffff;stroke-linejoin:miter;stroke-width:0.75;" x="479.437216" xlink:href="#mae682490c4" y="338.18805"/>
    </g>
   </g>
   <g id="line2d_31"/>
   <g id="line2d_32"/>
   <g id="line2d_33"/>
   <g id="line2d_34">
    <path clip-path="url(#pd45babe138)" d="M 73.619034 339.838125 
" style="fill:none;stroke:#ff7f0e;stroke-linecap:square;stroke-width:1.5;"/>
   </g>
   <g id="patch_3">
    <path d="M 53.328125 354.958125 
L 53.328125 22.318125 
" style="fill:none;stroke:#000000;stroke-linecap:square;stroke-linejoin:miter;stroke-width:0.8;"/>
   </g>
   <g id="patch_4">
    <path d="M 499.728125 354.958125 
L 499.728125 22.318125 
" style="fill:none;stroke:#000000;stroke-linecap:square;stroke-linejoin:miter;stroke-width:0.8;"/>
   </g>
   <g id="patch_5">
    <path d="M 53.328125 354.958125 
L 499.728125 354.958125 
" style="fill:none;stroke:#000000;stroke-linecap:square;stroke-linejoin:miter;stroke-width:0.8;"/>
   </g>
   <g id="patch_6">
    <path d="M 53.328125 22.318125 
L 499.728125 22.318125 
" style="fill:none;stroke:#000000;stroke-linecap:square;stroke-linejoin:miter;stroke-width:0.8;"/>
   </g>
   <g id="text_23">
    <!-- Memory:  FST (single SNPs) -->
    <g transform="translate(194.711562 16.318125)scale(0.12 -0.12)">
     <defs>
      <path d="M 750 794 
L 1409 794 
L 1409 0 
L 750 0 
L 750 794 
z
M 750 3309 
L 1409 3309 
L 1409 2516 
L 750 2516 
L 750 3309 
z
" id="DejaVuSans-3a" transform="scale(0.015625)"/>
      <path d="M 628 4666 
L 3309 4666 
L 3309 4134 
L 1259 4134 
L 1259 2759 
L 3109 2759 
L 3109 2228 
L 1259 2228 
L 1259 0 
L 628 0 
L 628 4666 
z
" id="DejaVuSans-46" transform="scale(0.015625)"/>
      <path d="M -19 4666 
L 3928 4666 
L 3928 4134 
L 2272 4134 
L 2272 0 
L 1638 0 
L 1638 4134 
L -19 4134 
L -19 4666 
z
" id="DejaVuSans-54" transform="scale(0.015625)"/>
      <path d="M 1984 4856 
Q 1566 4138 1362 3434 
Q 1159 2731 1159 2009 
Q 1159 1288 1364 580 
Q 1569 -128 1984 -844 
L 1484 -844 
Q 1016 -109 783 600 
Q 550 1309 550 2009 
Q 550 2706 781 3412 
Q 1013 4119 1484 4856 
L 1984 4856 
z
" id="DejaVuSans-28" transform="scale(0.015625)"/>
      <path d="M 3513 2113 
L 3513 0 
L 2938 0 
L 2938 2094 
Q 2938 2591 2744 2837 
Q 2550 3084 2163 3084 
Q 1697 3084 1428 2787 
Q 1159 2491 1159 1978 
L 1159 0 
L 581 0 
L 581 3500 
L 1159 3500 
L 1159 2956 
Q 1366 3272 1645 3428 
Q 1925 3584 2291 3584 
Q 2894 3584 3203 3211 
Q 3513 2838 3513 2113 
z
" id="DejaVuSans-6e" transform="scale(0.015625)"/>
      <path d="M 2906 1791 
Q 2906 2416 2648 2759 
Q 2391 3103 1925 3103 
Q 1463 3103 1205 2759 
Q 947 2416 947 1791 
Q 947 1169 1205 825 
Q 1463 481 1925 481 
Q 2391 481 2648 825 
Q 2906 1169 2906 1791 
z
M 3481 434 
Q 3481 -459 3084 -895 
Q 2688 -1331 1869 -1331 
Q 1566 -1331 1297 -1286 
Q 1028 -1241 775 -1147 
L 775 -588 
Q 1028 -725 1275 -790 
Q 1522 -856 1778 -856 
Q 2344 -856 2625 -561 
Q 2906 -266 2906 331 
L 2906 616 
Q 2728 306 2450 153 
Q 2172 0 1784 0 
Q 1141 0 747 490 
Q 353 981 353 1791 
Q 353 2603 747 3093 
Q 1141 3584 1784 3584 
Q 2172 3584 2450 3431 
Q 2728 3278 2906 2969 
L 2906 3500 
L 3481 3500 
L 3481 434 
z
" id="DejaVuSans-67" transform="scale(0.015625)"/>
      <path d="M 603 4863 
L 1178 4863 
L 1178 0 
L 603 0 
L 603 4863 
z
" id="DejaVuSans-6c" transform="scale(0.015625)"/>
      <path d="M 628 4666 
L 1478 4666 
L 3547 763 
L 3547 4666 
L 4159 4666 
L 4159 0 
L 3309 0 
L 1241 3903 
L 1241 0 
L 628 0 
L 628 4666 
z
" id="DejaVuSans-4e" transform="scale(0.015625)"/>
      <path d="M 1259 4147 
L 1259 2394 
L 2053 2394 
Q 2494 2394 2734 2622 
Q 2975 2850 2975 3272 
Q 2975 3691 2734 3919 
Q 2494 4147 2053 4147 
L 1259 4147 
z
M 628 4666 
L 2053 4666 
Q 2838 4666 3239 4311 
Q 3641 3956 3641 3272 
Q 3641 2581 3239 2228 
Q 2838 1875 2053 1875 
L 1259 1875 
L 1259 0 
L 628 0 
L 628 4666 
z
" id="DejaVuSans-50" transform="scale(0.015625)"/>
      <path d="M 513 4856 
L 1013 4856 
Q 1481 4119 1714 3412 
Q 1947 2706 1947 2009 
Q 1947 1309 1714 600 
Q 1481 -109 1013 -844 
L 513 -844 
Q 928 -128 1133 580 
Q 1338 1288 1338 2009 
Q 1338 2731 1133 3434 
Q 928 4138 513 4856 
z
" id="DejaVuSans-29" transform="scale(0.015625)"/>
     </defs>
     <use xlink:href="#DejaVuSans-4d"/>
     <use x="86.279297" xlink:href="#DejaVuSans-65"/>
     <use x="147.802734" xlink:href="#DejaVuSans-6d"/>
     <use x="245.214844" xlink:href="#DejaVuSans-6f"/>
     <use x="306.396484" xlink:href="#DejaVuSans-72"/>
     <use x="347.509766" xlink:href="#DejaVuSans-79"/>
     <use x="399.439453" xlink:href="#DejaVuSans-3a"/>
     <use x="433.130859" xlink:href="#DejaVuSans-20"/>
     <use x="464.917969" xlink:href="#DejaVuSans-20"/>
     <use x="496.705078" xlink:href="#DejaVuSans-46"/>
     <use x="552.474609" xlink:href="#DejaVuSans-53"/>
     <use x="615.951172" xlink:href="#DejaVuSans-54"/>
     <use x="677.035156" xlink:href="#DejaVuSans-20"/>
     <use x="708.822266" xlink:href="#DejaVuSans-28"/>
     <use x="747.835938" xlink:href="#DejaVuSans-73"/>
     <use x="799.935547" xlink:href="#DejaVuSans-69"/>
     <use x="827.71875" xlink:href="#DejaVuSans-6e"/>
     <use x="891.097656" xlink:href="#DejaVuSans-67"/>
     <use x="954.574219" xlink:href="#DejaVuSans-6c"/>
     <use x="982.357422" xlink:href="#DejaVuSans-65"/>
     <use x="1043.880859" xlink:href="#DejaVuSans-20"/>
     <use x="1075.667969" xlink:href="#DejaVuSans-53"/>
     <use x="1139.144531" xlink:href="#DejaVuSans-4e"/>
     <use x="1213.949219" xlink:href="#DejaVuSans-50"/>
     <use x="1272.501953" xlink:href="#DejaVuSans-73"/>
     <use x="1324.601562" xlink:href="#DejaVuSans-29"/>
    </g>
   </g>
  </g>
 </g>
 <defs>
  <clipPath id="pd45babe138">
   <rect height="332.64" width="446.4" x="53.328125" y="22.318125"/>
  </clipPath>
 </defs>
</svg>
