<?xml version="1.0" encoding="utf-8" standalone="no"?>
<!DOCTYPE svg PUBLIC "-//W3C//DTD SVG 1.1//EN"
  "http://www.w3.org/Graphics/SVG/1.1/DTD/svg11.dtd">
<svg height="390.914375pt" version="1.1" viewBox="0 0 499.078125 390.914375" width="499.078125pt" xmlns="http://www.w3.org/2000/svg" xmlns:xlink="http://www.w3.org/1999/xlink">
 <metadata>
  <rdf:RDF xmlns:cc="http://creativecommons.org/ns#" xmlns:dc="http://purl.org/dc/elements/1.1/" xmlns:rdf="http://www.w3.org/1999/02/22-rdf-syntax-ns#">
   <cc:Work>
    <dc:type rdf:resource="http://purl.org/dc/dcmitype/StillImage"/>
    <dc:date>2024-07-23T18:28:22.846178</dc:date>
    <dc:format>image/svg+xml</dc:format>
    <dc:creator>
     <cc:Agent>
      <dc:title>Matplotlib v3.4.2, https://matplotlib.org/</dc:title>
     </cc:Agent>
    </dc:creator>
   </cc:Work>
  </rdf:RDF>
 </metadata>
 <defs>
  <style type="text/css">*{stroke-linecap:butt;stroke-linejoin:round;}</style>
 </defs>
 <g id="figure_1">
  <g id="patch_1">
   <path d="M 0 390.914375 
L 499.078125 390.914375 
L 499.078125 0 
L 0 0 
z
" style="fill:#ffffff;"/>
  </g>
  <g id="axes_1">
   <g id="patch_2">
    <path d="M 45.478125 354.958125 
L 491.878125 354.958125 
L 491.878125 22.318125 
L 45.478125 22.318125 
z
" style="fill:#ffffff;"/>
   </g>
   <g id="matplotlib.axis_1">
    <g id="xtick_1">
     <g id="line2d_1">
      <defs>
       <path d="M 0 0 
L 0 2 
" id="m007d86065a" style="stroke:#000000;stroke-width:0.6;"/>
      </defs>
      <g>
       <use style="stroke:#000000;stroke-width:0.6;" x="65.769034" xlink:href="#m007d86065a" y="354.958125"/>
      </g>
     </g>
     <g id="text_1">
      <!-- 10K -->
      <g transform="translate(56.127628 367.956562)scale(0.1 -0.1)">
       <defs>
        <path d="M 794 531 
L 1825 531 
L 1825 4091 
L 703 3866 
L 703 4441 
L 1819 4666 
L 2450 4666 
L 2450 531 
L 3481 531 
L 3481 0 
L 794 0 
L 794 531 
z
" id="DejaVuSans-31" transform="scale(0.015625)"/>
        <path d="M 2034 4250 
Q 1547 4250 1301 3770 
Q 1056 3291 1056 2328 
Q 1056 1369 1301 889 
Q 1547 409 2034 409 
Q 2525 409 2770 889 
Q 3016 1369 3016 2328 
Q 3016 3291 2770 3770 
Q 2525 4250 2034 4250 
z
M 2034 4750 
Q 2819 4750 3233 4129 
Q 3647 3509 3647 2328 
Q 3647 1150 3233 529 
Q 2819 -91 2034 -91 
Q 1250 -91 836 529 
Q 422 1150 422 2328 
Q 422 3509 836 4129 
Q 1250 4750 2034 4750 
z
" id="DejaVuSans-30" transform="scale(0.015625)"/>
        <path d="M 628 4666 
L 1259 4666 
L 1259 2694 
L 3353 4666 
L 4166 4666 
L 1850 2491 
L 4331 0 
L 3500 0 
L 1259 2247 
L 1259 0 
L 628 0 
L 628 4666 
z
" id="DejaVuSans-4b" transform="scale(0.015625)"/>
       </defs>
       <use xlink:href="#DejaVuSans-31"/>
       <use x="63.623047" xlink:href="#DejaVuSans-30"/>
       <use x="127.246094" xlink:href="#DejaVuSans-4b"/>
      </g>
     </g>
    </g>
    <g id="xtick_2">
     <g id="line2d_2">
      <g>
       <use style="stroke:#000000;stroke-width:0.6;" x="99.587216" xlink:href="#m007d86065a" y="354.958125"/>
      </g>
     </g>
     <g id="text_2">
      <!-- 20K -->
      <g transform="translate(89.94581 367.956562)scale(0.1 -0.1)">
       <defs>
        <path d="M 1228 531 
L 3431 531 
L 3431 0 
L 469 0 
L 469 531 
Q 828 903 1448 1529 
Q 2069 2156 2228 2338 
Q 2531 2678 2651 2914 
Q 2772 3150 2772 3378 
Q 2772 3750 2511 3984 
Q 2250 4219 1831 4219 
Q 1534 4219 1204 4116 
Q 875 4013 500 3803 
L 500 4441 
Q 881 4594 1212 4672 
Q 1544 4750 1819 4750 
Q 2544 4750 2975 4387 
Q 3406 4025 3406 3419 
Q 3406 3131 3298 2873 
Q 3191 2616 2906 2266 
Q 2828 2175 2409 1742 
Q 1991 1309 1228 531 
z
" id="DejaVuSans-32" transform="scale(0.015625)"/>
       </defs>
       <use xlink:href="#DejaVuSans-32"/>
       <use x="63.623047" xlink:href="#DejaVuSans-30"/>
       <use x="127.246094" xlink:href="#DejaVuSans-4b"/>
      </g>
     </g>
    </g>
    <g id="xtick_3">
     <g id="line2d_3">
      <g>
       <use style="stroke:#000000;stroke-width:0.6;" x="133.405398" xlink:href="#m007d86065a" y="354.958125"/>
      </g>
     </g>
     <g id="text_3">
      <!-- 50K -->
      <g transform="translate(123.763991 367.956562)scale(0.1 -0.1)">
       <defs>
        <path d="M 691 4666 
L 3169 4666 
L 3169 4134 
L 1269 4134 
L 1269 2991 
Q 1406 3038 1543 3061 
Q 1681 3084 1819 3084 
Q 2600 3084 3056 2656 
Q 3513 2228 3513 1497 
Q 3513 744 3044 326 
Q 2575 -91 1722 -91 
Q 1428 -91 1123 -41 
Q 819 9 494 109 
L 494 744 
Q 775 591 1075 516 
Q 1375 441 1709 441 
Q 2250 441 2565 725 
Q 2881 1009 2881 1497 
Q 2881 1984 2565 2268 
Q 2250 2553 1709 2553 
Q 1456 2553 1204 2497 
Q 953 2441 691 2322 
L 691 4666 
z
" id="DejaVuSans-35" transform="scale(0.015625)"/>
       </defs>
       <use xlink:href="#DejaVuSans-35"/>
       <use x="63.623047" xlink:href="#DejaVuSans-30"/>
       <use x="127.246094" xlink:href="#DejaVuSans-4b"/>
      </g>
     </g>
    </g>
    <g id="xtick_4">
     <g id="line2d_4">
      <g>
       <use style="stroke:#000000;stroke-width:0.6;" x="167.22358" xlink:href="#m007d86065a" y="354.958125"/>
      </g>
     </g>
     <g id="text_4">
      <!-- 100K -->
      <g transform="translate(154.400923 367.956562)scale(0.1 -0.1)">
       <use xlink:href="#DejaVuSans-31"/>
       <use x="63.623047" xlink:href="#DejaVuSans-30"/>
       <use x="127.246094" xlink:href="#DejaVuSans-30"/>
       <use x="190.869141" xlink:href="#DejaVuSans-4b"/>
      </g>
     </g>
    </g>
    <g id="xtick_5">
     <g id="line2d_5">
      <g>
       <use style="stroke:#000000;stroke-width:0.6;" x="201.041761" xlink:href="#m007d86065a" y="354.958125"/>
      </g>
     </g>
     <g id="text_5">
      <!-- 200K -->
      <g transform="translate(188.219105 367.956562)scale(0.1 -0.1)">
       <use xlink:href="#DejaVuSans-32"/>
       <use x="63.623047" xlink:href="#DejaVuSans-30"/>
       <use x="127.246094" xlink:href="#DejaVuSans-30"/>
       <use x="190.869141" xlink:href="#DejaVuSans-4b"/>
      </g>
     </g>
    </g>
    <g id="xtick_6">
     <g id="line2d_6">
      <g>
       <use style="stroke:#000000;stroke-width:0.6;" x="234.859943" xlink:href="#m007d86065a" y="354.958125"/>
      </g>
     </g>
     <g id="text_6">
      <!-- 500K -->
      <g transform="translate(222.037287 367.956562)scale(0.1 -0.1)">
       <use xlink:href="#DejaVuSans-35"/>
       <use x="63.623047" xlink:href="#DejaVuSans-30"/>
       <use x="127.246094" xlink:href="#DejaVuSans-30"/>
       <use x="190.869141" xlink:href="#DejaVuSans-4b"/>
      </g>
     </g>
    </g>
    <g id="xtick_7">
     <g id="line2d_7">
      <g>
       <use style="stroke:#000000;stroke-width:0.6;" x="268.678125" xlink:href="#m007d86065a" y="354.958125"/>
      </g>
     </g>
     <g id="text_7">
      <!-- 1M -->
      <g transform="translate(261.182813 367.956562)scale(0.1 -0.1)">
       <defs>
        <path d="M 628 4666 
L 1569 4666 
L 2759 1491 
L 3956 4666 
L 4897 4666 
L 4897 0 
L 4281 0 
L 4281 4097 
L 3078 897 
L 2444 897 
L 1241 4097 
L 1241 0 
L 628 0 
L 628 4666 
z
" id="DejaVuSans-4d" transform="scale(0.015625)"/>
       </defs>
       <use xlink:href="#DejaVuSans-31"/>
       <use x="63.623047" xlink:href="#DejaVuSans-4d"/>
      </g>
     </g>
    </g>
    <g id="xtick_8">
     <g id="line2d_8">
      <g>
       <use style="stroke:#000000;stroke-width:0.6;" x="302.496307" xlink:href="#m007d86065a" y="354.958125"/>
      </g>
     </g>
     <g id="text_8">
      <!-- 2M -->
      <g transform="translate(295.000994 367.956562)scale(0.1 -0.1)">
       <use xlink:href="#DejaVuSans-32"/>
       <use x="63.623047" xlink:href="#DejaVuSans-4d"/>
      </g>
     </g>
    </g>
    <g id="xtick_9">
     <g id="line2d_9">
      <g>
       <use style="stroke:#000000;stroke-width:0.6;" x="336.314489" xlink:href="#m007d86065a" y="354.958125"/>
      </g>
     </g>
     <g id="text_9">
      <!-- 5M -->
      <g transform="translate(328.819176 367.956562)scale(0.1 -0.1)">
       <use xlink:href="#DejaVuSans-35"/>
       <use x="63.623047" xlink:href="#DejaVuSans-4d"/>
      </g>
     </g>
    </g>
    <g id="xtick_10">
     <g id="line2d_10">
      <g>
       <use style="stroke:#000000;stroke-width:0.6;" x="370.13267" xlink:href="#m007d86065a" y="354.958125"/>
      </g>
     </g>
     <g id="text_10">
      <!-- 10M -->
      <g transform="translate(359.456108 367.956562)scale(0.1 -0.1)">
       <use xlink:href="#DejaVuSans-31"/>
       <use x="63.623047" xlink:href="#DejaVuSans-30"/>
       <use x="127.246094" xlink:href="#DejaVuSans-4d"/>
      </g>
     </g>
    </g>
    <g id="xtick_11">
     <g id="line2d_11">
      <g>
       <use style="stroke:#000000;stroke-width:0.6;" x="403.950852" xlink:href="#m007d86065a" y="354.958125"/>
      </g>
     </g>
     <g id="text_11">
      <!-- 20M -->
      <g transform="translate(393.27429 367.956562)scale(0.1 -0.1)">
       <use xlink:href="#DejaVuSans-32"/>
       <use x="63.623047" xlink:href="#DejaVuSans-30"/>
       <use x="127.246094" xlink:href="#DejaVuSans-4d"/>
      </g>
     </g>
    </g>
    <g id="xtick_12">
     <g id="line2d_12">
      <g>
       <use style="stroke:#000000;stroke-width:0.6;" x="437.769034" xlink:href="#m007d86065a" y="354.958125"/>
      </g>
     </g>
     <g id="text_12">
      <!-- 50M -->
      <g transform="translate(427.092472 367.956562)scale(0.1 -0.1)">
       <use xlink:href="#DejaVuSans-35"/>
       <use x="63.623047" xlink:href="#DejaVuSans-30"/>
       <use x="127.246094" xlink:href="#DejaVuSans-4d"/>
      </g>
     </g>
    </g>
    <g id="xtick_13">
     <g id="line2d_13">
      <g>
       <use style="stroke:#000000;stroke-width:0.6;" x="471.587216" xlink:href="#m007d86065a" y="354.958125"/>
      </g>
     </g>
     <g id="text_13">
      <!-- 100M -->
      <g transform="translate(457.729403 367.956562)scale(0.1 -0.1)">
       <use xlink:href="#DejaVuSans-31"/>
       <use x="63.623047" xlink:href="#DejaVuSans-30"/>
       <use x="127.246094" xlink:href="#DejaVuSans-30"/>
       <use x="190.869141" xlink:href="#DejaVuSans-4d"/>
      </g>
     </g>
    </g>
    <g id="text_14">
     <!-- Dataset Size  [genome positions] -->
     <g transform="translate(185.741406 381.634687)scale(0.1 -0.1)">
      <defs>
       <path d="M 1259 4147 
L 1259 519 
L 2022 519 
Q 2988 519 3436 956 
Q 3884 1394 3884 2338 
Q 3884 3275 3436 3711 
Q 2988 4147 2022 4147 
L 1259 4147 
z
M 628 4666 
L 1925 4666 
Q 3281 4666 3915 4102 
Q 4550 3538 4550 2338 
Q 4550 1131 3912 565 
Q 3275 0 1925 0 
L 628 0 
L 628 4666 
z
" id="DejaVuSans-44" transform="scale(0.015625)"/>
       <path d="M 2194 1759 
Q 1497 1759 1228 1600 
Q 959 1441 959 1056 
Q 959 750 1161 570 
Q 1363 391 1709 391 
Q 2188 391 2477 730 
Q 2766 1069 2766 1631 
L 2766 1759 
L 2194 1759 
z
M 3341 1997 
L 3341 0 
L 2766 0 
L 2766 531 
Q 2569 213 2275 61 
Q 1981 -91 1556 -91 
Q 1019 -91 701 211 
Q 384 513 384 1019 
Q 384 1609 779 1909 
Q 1175 2209 1959 2209 
L 2766 2209 
L 2766 2266 
Q 2766 2663 2505 2880 
Q 2244 3097 1772 3097 
Q 1472 3097 1187 3025 
Q 903 2953 641 2809 
L 641 3341 
Q 956 3463 1253 3523 
Q 1550 3584 1831 3584 
Q 2591 3584 2966 3190 
Q 3341 2797 3341 1997 
z
" id="DejaVuSans-61" transform="scale(0.015625)"/>
       <path d="M 1172 4494 
L 1172 3500 
L 2356 3500 
L 2356 3053 
L 1172 3053 
L 1172 1153 
Q 1172 725 1289 603 
Q 1406 481 1766 481 
L 2356 481 
L 2356 0 
L 1766 0 
Q 1100 0 847 248 
Q 594 497 594 1153 
L 594 3053 
L 172 3053 
L 172 3500 
L 594 3500 
L 594 4494 
L 1172 4494 
z
" id="DejaVuSans-74" transform="scale(0.015625)"/>
       <path d="M 2834 3397 
L 2834 2853 
Q 2591 2978 2328 3040 
Q 2066 3103 1784 3103 
Q 1356 3103 1142 2972 
Q 928 2841 928 2578 
Q 928 2378 1081 2264 
Q 1234 2150 1697 2047 
L 1894 2003 
Q 2506 1872 2764 1633 
Q 3022 1394 3022 966 
Q 3022 478 2636 193 
Q 2250 -91 1575 -91 
Q 1294 -91 989 -36 
Q 684 19 347 128 
L 347 722 
Q 666 556 975 473 
Q 1284 391 1588 391 
Q 1994 391 2212 530 
Q 2431 669 2431 922 
Q 2431 1156 2273 1281 
Q 2116 1406 1581 1522 
L 1381 1569 
Q 847 1681 609 1914 
Q 372 2147 372 2553 
Q 372 3047 722 3315 
Q 1072 3584 1716 3584 
Q 2034 3584 2315 3537 
Q 2597 3491 2834 3397 
z
" id="DejaVuSans-73" transform="scale(0.015625)"/>
       <path d="M 3597 1894 
L 3597 1613 
L 953 1613 
Q 991 1019 1311 708 
Q 1631 397 2203 397 
Q 2534 397 2845 478 
Q 3156 559 3463 722 
L 3463 178 
Q 3153 47 2828 -22 
Q 2503 -91 2169 -91 
Q 1331 -91 842 396 
Q 353 884 353 1716 
Q 353 2575 817 3079 
Q 1281 3584 2069 3584 
Q 2775 3584 3186 3129 
Q 3597 2675 3597 1894 
z
M 3022 2063 
Q 3016 2534 2758 2815 
Q 2500 3097 2075 3097 
Q 1594 3097 1305 2825 
Q 1016 2553 972 2059 
L 3022 2063 
z
" id="DejaVuSans-65" transform="scale(0.015625)"/>
       <path id="DejaVuSans-20" transform="scale(0.015625)"/>
       <path d="M 3425 4513 
L 3425 3897 
Q 3066 4069 2747 4153 
Q 2428 4238 2131 4238 
Q 1616 4238 1336 4038 
Q 1056 3838 1056 3469 
Q 1056 3159 1242 3001 
Q 1428 2844 1947 2747 
L 2328 2669 
Q 3034 2534 3370 2195 
Q 3706 1856 3706 1288 
Q 3706 609 3251 259 
Q 2797 -91 1919 -91 
Q 1588 -91 1214 -16 
Q 841 59 441 206 
L 441 856 
Q 825 641 1194 531 
Q 1563 422 1919 422 
Q 2459 422 2753 634 
Q 3047 847 3047 1241 
Q 3047 1584 2836 1778 
Q 2625 1972 2144 2069 
L 1759 2144 
Q 1053 2284 737 2584 
Q 422 2884 422 3419 
Q 422 4038 858 4394 
Q 1294 4750 2059 4750 
Q 2388 4750 2728 4690 
Q 3069 4631 3425 4513 
z
" id="DejaVuSans-53" transform="scale(0.015625)"/>
       <path d="M 603 3500 
L 1178 3500 
L 1178 0 
L 603 0 
L 603 3500 
z
M 603 4863 
L 1178 4863 
L 1178 4134 
L 603 4134 
L 603 4863 
z
" id="DejaVuSans-69" transform="scale(0.015625)"/>
       <path d="M 353 3500 
L 3084 3500 
L 3084 2975 
L 922 459 
L 3084 459 
L 3084 0 
L 275 0 
L 275 525 
L 2438 3041 
L 353 3041 
L 353 3500 
z
" id="DejaVuSans-7a" transform="scale(0.015625)"/>
       <path d="M 550 4863 
L 1875 4863 
L 1875 4416 
L 1125 4416 
L 1125 -397 
L 1875 -397 
L 1875 -844 
L 550 -844 
L 550 4863 
z
" id="DejaVuSans-5b" transform="scale(0.015625)"/>
       <path d="M 2906 1791 
Q 2906 2416 2648 2759 
Q 2391 3103 1925 3103 
Q 1463 3103 1205 2759 
Q 947 2416 947 1791 
Q 947 1169 1205 825 
Q 1463 481 1925 481 
Q 2391 481 2648 825 
Q 2906 1169 2906 1791 
z
M 3481 434 
Q 3481 -459 3084 -895 
Q 2688 -1331 1869 -1331 
Q 1566 -1331 1297 -1286 
Q 1028 -1241 775 -1147 
L 775 -588 
Q 1028 -725 1275 -790 
Q 1522 -856 1778 -856 
Q 2344 -856 2625 -561 
Q 2906 -266 2906 331 
L 2906 616 
Q 2728 306 2450 153 
Q 2172 0 1784 0 
Q 1141 0 747 490 
Q 353 981 353 1791 
Q 353 2603 747 3093 
Q 1141 3584 1784 3584 
Q 2172 3584 2450 3431 
Q 2728 3278 2906 2969 
L 2906 3500 
L 3481 3500 
L 3481 434 
z
" id="DejaVuSans-67" transform="scale(0.015625)"/>
       <path d="M 3513 2113 
L 3513 0 
L 2938 0 
L 2938 2094 
Q 2938 2591 2744 2837 
Q 2550 3084 2163 3084 
Q 1697 3084 1428 2787 
Q 1159 2491 1159 1978 
L 1159 0 
L 581 0 
L 581 3500 
L 1159 3500 
L 1159 2956 
Q 1366 3272 1645 3428 
Q 1925 3584 2291 3584 
Q 2894 3584 3203 3211 
Q 3513 2838 3513 2113 
z
" id="DejaVuSans-6e" transform="scale(0.015625)"/>
       <path d="M 1959 3097 
Q 1497 3097 1228 2736 
Q 959 2375 959 1747 
Q 959 1119 1226 758 
Q 1494 397 1959 397 
Q 2419 397 2687 759 
Q 2956 1122 2956 1747 
Q 2956 2369 2687 2733 
Q 2419 3097 1959 3097 
z
M 1959 3584 
Q 2709 3584 3137 3096 
Q 3566 2609 3566 1747 
Q 3566 888 3137 398 
Q 2709 -91 1959 -91 
Q 1206 -91 779 398 
Q 353 888 353 1747 
Q 353 2609 779 3096 
Q 1206 3584 1959 3584 
z
" id="DejaVuSans-6f" transform="scale(0.015625)"/>
       <path d="M 3328 2828 
Q 3544 3216 3844 3400 
Q 4144 3584 4550 3584 
Q 5097 3584 5394 3201 
Q 5691 2819 5691 2113 
L 5691 0 
L 5113 0 
L 5113 2094 
Q 5113 2597 4934 2840 
Q 4756 3084 4391 3084 
Q 3944 3084 3684 2787 
Q 3425 2491 3425 1978 
L 3425 0 
L 2847 0 
L 2847 2094 
Q 2847 2600 2669 2842 
Q 2491 3084 2119 3084 
Q 1678 3084 1418 2786 
Q 1159 2488 1159 1978 
L 1159 0 
L 581 0 
L 581 3500 
L 1159 3500 
L 1159 2956 
Q 1356 3278 1631 3431 
Q 1906 3584 2284 3584 
Q 2666 3584 2933 3390 
Q 3200 3197 3328 2828 
z
" id="DejaVuSans-6d" transform="scale(0.015625)"/>
       <path d="M 1159 525 
L 1159 -1331 
L 581 -1331 
L 581 3500 
L 1159 3500 
L 1159 2969 
Q 1341 3281 1617 3432 
Q 1894 3584 2278 3584 
Q 2916 3584 3314 3078 
Q 3713 2572 3713 1747 
Q 3713 922 3314 415 
Q 2916 -91 2278 -91 
Q 1894 -91 1617 61 
Q 1341 213 1159 525 
z
M 3116 1747 
Q 3116 2381 2855 2742 
Q 2594 3103 2138 3103 
Q 1681 3103 1420 2742 
Q 1159 2381 1159 1747 
Q 1159 1113 1420 752 
Q 1681 391 2138 391 
Q 2594 391 2855 752 
Q 3116 1113 3116 1747 
z
" id="DejaVuSans-70" transform="scale(0.015625)"/>
       <path d="M 1947 4863 
L 1947 -844 
L 622 -844 
L 622 -397 
L 1369 -397 
L 1369 4416 
L 622 4416 
L 622 4863 
L 1947 4863 
z
" id="DejaVuSans-5d" transform="scale(0.015625)"/>
      </defs>
      <use xlink:href="#DejaVuSans-44"/>
      <use x="77.001953" xlink:href="#DejaVuSans-61"/>
      <use x="138.28125" xlink:href="#DejaVuSans-74"/>
      <use x="177.490234" xlink:href="#DejaVuSans-61"/>
      <use x="238.769531" xlink:href="#DejaVuSans-73"/>
      <use x="290.869141" xlink:href="#DejaVuSans-65"/>
      <use x="352.392578" xlink:href="#DejaVuSans-74"/>
      <use x="391.601562" xlink:href="#DejaVuSans-20"/>
      <use x="423.388672" xlink:href="#DejaVuSans-53"/>
      <use x="486.865234" xlink:href="#DejaVuSans-69"/>
      <use x="514.648438" xlink:href="#DejaVuSans-7a"/>
      <use x="567.138672" xlink:href="#DejaVuSans-65"/>
      <use x="628.662109" xlink:href="#DejaVuSans-20"/>
      <use x="660.449219" xlink:href="#DejaVuSans-20"/>
      <use x="692.236328" xlink:href="#DejaVuSans-5b"/>
      <use x="731.25" xlink:href="#DejaVuSans-67"/>
      <use x="794.726562" xlink:href="#DejaVuSans-65"/>
      <use x="856.25" xlink:href="#DejaVuSans-6e"/>
      <use x="919.628906" xlink:href="#DejaVuSans-6f"/>
      <use x="980.810547" xlink:href="#DejaVuSans-6d"/>
      <use x="1078.222656" xlink:href="#DejaVuSans-65"/>
      <use x="1139.746094" xlink:href="#DejaVuSans-20"/>
      <use x="1171.533203" xlink:href="#DejaVuSans-70"/>
      <use x="1235.009766" xlink:href="#DejaVuSans-6f"/>
      <use x="1296.191406" xlink:href="#DejaVuSans-73"/>
      <use x="1348.291016" xlink:href="#DejaVuSans-69"/>
      <use x="1376.074219" xlink:href="#DejaVuSans-74"/>
      <use x="1415.283203" xlink:href="#DejaVuSans-69"/>
      <use x="1443.066406" xlink:href="#DejaVuSans-6f"/>
      <use x="1504.248047" xlink:href="#DejaVuSans-6e"/>
      <use x="1567.626953" xlink:href="#DejaVuSans-73"/>
      <use x="1619.726562" xlink:href="#DejaVuSans-5d"/>
     </g>
    </g>
   </g>
   <g id="matplotlib.axis_2">
    <g id="ytick_1">
     <g id="line2d_14">
      <path clip-path="url(#p436e2e7d71)" d="M 45.478125 339.695172 
L 491.878125 339.695172 
" style="fill:none;stroke:#b0b0b0;stroke-linecap:square;stroke-width:0.8;"/>
     </g>
     <g id="line2d_15">
      <defs>
       <path d="M 0 0 
L -3.5 0 
" id="mb69275bc47" style="stroke:#000000;stroke-width:0.8;"/>
      </defs>
      <g>
       <use style="stroke:#000000;stroke-width:0.8;" x="45.478125" xlink:href="#mb69275bc47" y="339.695172"/>
      </g>
     </g>
     <g id="text_15">
      <!-- $\mathdefault{10^{1}}$ -->
      <g transform="translate(20.878125 343.494391)scale(0.1 -0.1)">
       <use transform="translate(0 0.684375)" xlink:href="#DejaVuSans-31"/>
       <use transform="translate(63.623047 0.684375)" xlink:href="#DejaVuSans-30"/>
       <use transform="translate(128.203125 38.965625)scale(0.7)" xlink:href="#DejaVuSans-31"/>
      </g>
     </g>
    </g>
    <g id="ytick_2">
     <g id="line2d_16">
      <path clip-path="url(#p436e2e7d71)" d="M 45.478125 199.417443 
L 491.878125 199.417443 
" style="fill:none;stroke:#b0b0b0;stroke-linecap:square;stroke-width:0.8;"/>
     </g>
     <g id="line2d_17">
      <g>
       <use style="stroke:#000000;stroke-width:0.8;" x="45.478125" xlink:href="#mb69275bc47" y="199.417443"/>
      </g>
     </g>
     <g id="text_16">
      <!-- $\mathdefault{10^{2}}$ -->
      <g transform="translate(20.878125 203.216661)scale(0.1 -0.1)">
       <use transform="translate(0 0.765625)" xlink:href="#DejaVuSans-31"/>
       <use transform="translate(63.623047 0.765625)" xlink:href="#DejaVuSans-30"/>
       <use transform="translate(128.203125 39.046875)scale(0.7)" xlink:href="#DejaVuSans-32"/>
      </g>
     </g>
    </g>
    <g id="ytick_3">
     <g id="line2d_18">
      <path clip-path="url(#p436e2e7d71)" d="M 45.478125 59.139713 
L 491.878125 59.139713 
" style="fill:none;stroke:#b0b0b0;stroke-linecap:square;stroke-width:0.8;"/>
     </g>
     <g id="line2d_19">
      <g>
       <use style="stroke:#000000;stroke-width:0.8;" x="45.478125" xlink:href="#mb69275bc47" y="59.139713"/>
      </g>
     </g>
     <g id="text_17">
      <!-- $\mathdefault{10^{3}}$ -->
      <g transform="translate(20.878125 62.938932)scale(0.1 -0.1)">
       <defs>
        <path d="M 2597 2516 
Q 3050 2419 3304 2112 
Q 3559 1806 3559 1356 
Q 3559 666 3084 287 
Q 2609 -91 1734 -91 
Q 1441 -91 1130 -33 
Q 819 25 488 141 
L 488 750 
Q 750 597 1062 519 
Q 1375 441 1716 441 
Q 2309 441 2620 675 
Q 2931 909 2931 1356 
Q 2931 1769 2642 2001 
Q 2353 2234 1838 2234 
L 1294 2234 
L 1294 2753 
L 1863 2753 
Q 2328 2753 2575 2939 
Q 2822 3125 2822 3475 
Q 2822 3834 2567 4026 
Q 2313 4219 1838 4219 
Q 1578 4219 1281 4162 
Q 984 4106 628 3988 
L 628 4550 
Q 988 4650 1302 4700 
Q 1616 4750 1894 4750 
Q 2613 4750 3031 4423 
Q 3450 4097 3450 3541 
Q 3450 3153 3228 2886 
Q 3006 2619 2597 2516 
z
" id="DejaVuSans-33" transform="scale(0.015625)"/>
       </defs>
       <use transform="translate(0 0.765625)" xlink:href="#DejaVuSans-31"/>
       <use transform="translate(63.623047 0.765625)" xlink:href="#DejaVuSans-30"/>
       <use transform="translate(128.203125 39.046875)scale(0.7)" xlink:href="#DejaVuSans-33"/>
      </g>
     </g>
    </g>
    <g id="ytick_4">
     <g id="line2d_20">
      <defs>
       <path d="M 0 0 
L -2 0 
" id="m432840e2bd" style="stroke:#000000;stroke-width:0.6;"/>
      </defs>
      <g>
       <use style="stroke:#000000;stroke-width:0.6;" x="45.478125" xlink:href="#m432840e2bd" y="353.289488"/>
      </g>
     </g>
    </g>
    <g id="ytick_5">
     <g id="line2d_21">
      <g>
       <use style="stroke:#000000;stroke-width:0.6;" x="45.478125" xlink:href="#m432840e2bd" y="346.113929"/>
      </g>
     </g>
    </g>
    <g id="ytick_6">
     <g id="line2d_22">
      <g>
       <use style="stroke:#000000;stroke-width:0.6;" x="45.478125" xlink:href="#m432840e2bd" y="297.467368"/>
      </g>
     </g>
    </g>
    <g id="ytick_7">
     <g id="line2d_23">
      <g>
       <use style="stroke:#000000;stroke-width:0.6;" x="45.478125" xlink:href="#m432840e2bd" y="272.765686"/>
      </g>
     </g>
    </g>
    <g id="ytick_8">
     <g id="line2d_24">
      <g>
       <use style="stroke:#000000;stroke-width:0.6;" x="45.478125" xlink:href="#m432840e2bd" y="255.239563"/>
      </g>
     </g>
    </g>
    <g id="ytick_9">
     <g id="line2d_25">
      <g>
       <use style="stroke:#000000;stroke-width:0.6;" x="45.478125" xlink:href="#m432840e2bd" y="241.645247"/>
      </g>
     </g>
    </g>
    <g id="ytick_10">
     <g id="line2d_26">
      <g>
       <use style="stroke:#000000;stroke-width:0.6;" x="45.478125" xlink:href="#m432840e2bd" y="230.537881"/>
      </g>
     </g>
    </g>
    <g id="ytick_11">
     <g id="line2d_27">
      <g>
       <use style="stroke:#000000;stroke-width:0.6;" x="45.478125" xlink:href="#m432840e2bd" y="221.146738"/>
      </g>
     </g>
    </g>
    <g id="ytick_12">
     <g id="line2d_28">
      <g>
       <use style="stroke:#000000;stroke-width:0.6;" x="45.478125" xlink:href="#m432840e2bd" y="213.011759"/>
      </g>
     </g>
    </g>
    <g id="ytick_13">
     <g id="line2d_29">
      <g>
       <use style="stroke:#000000;stroke-width:0.6;" x="45.478125" xlink:href="#m432840e2bd" y="205.8362"/>
      </g>
     </g>
    </g>
    <g id="ytick_14">
     <g id="line2d_30">
      <g>
       <use style="stroke:#000000;stroke-width:0.6;" x="45.478125" xlink:href="#m432840e2bd" y="157.189638"/>
      </g>
     </g>
    </g>
    <g id="ytick_15">
     <g id="line2d_31">
      <g>
       <use style="stroke:#000000;stroke-width:0.6;" x="45.478125" xlink:href="#m432840e2bd" y="132.487957"/>
      </g>
     </g>
    </g>
    <g id="ytick_16">
     <g id="line2d_32">
      <g>
       <use style="stroke:#000000;stroke-width:0.6;" x="45.478125" xlink:href="#m432840e2bd" y="114.961834"/>
      </g>
     </g>
    </g>
    <g id="ytick_17">
     <g id="line2d_33">
      <g>
       <use style="stroke:#000000;stroke-width:0.6;" x="45.478125" xlink:href="#m432840e2bd" y="101.367518"/>
      </g>
     </g>
    </g>
    <g id="ytick_18">
     <g id="line2d_34">
      <g>
       <use style="stroke:#000000;stroke-width:0.6;" x="45.478125" xlink:href="#m432840e2bd" y="90.260152"/>
      </g>
     </g>
    </g>
    <g id="ytick_19">
     <g id="line2d_35">
      <g>
       <use style="stroke:#000000;stroke-width:0.6;" x="45.478125" xlink:href="#m432840e2bd" y="80.869009"/>
      </g>
     </g>
    </g>
    <g id="ytick_20">
     <g id="line2d_36">
      <g>
       <use style="stroke:#000000;stroke-width:0.6;" x="45.478125" xlink:href="#m432840e2bd" y="72.73403"/>
      </g>
     </g>
    </g>
    <g id="ytick_21">
     <g id="line2d_37">
      <g>
       <use style="stroke:#000000;stroke-width:0.6;" x="45.478125" xlink:href="#m432840e2bd" y="65.55847"/>
      </g>
     </g>
    </g>
    <g id="text_18">
     <!-- Memory  [MB] -->
     <g transform="translate(14.798438 223.7975)rotate(-90)scale(0.1 -0.1)">
      <defs>
       <path d="M 2631 2963 
Q 2534 3019 2420 3045 
Q 2306 3072 2169 3072 
Q 1681 3072 1420 2755 
Q 1159 2438 1159 1844 
L 1159 0 
L 581 0 
L 581 3500 
L 1159 3500 
L 1159 2956 
Q 1341 3275 1631 3429 
Q 1922 3584 2338 3584 
Q 2397 3584 2469 3576 
Q 2541 3569 2628 3553 
L 2631 2963 
z
" id="DejaVuSans-72" transform="scale(0.015625)"/>
       <path d="M 2059 -325 
Q 1816 -950 1584 -1140 
Q 1353 -1331 966 -1331 
L 506 -1331 
L 506 -850 
L 844 -850 
Q 1081 -850 1212 -737 
Q 1344 -625 1503 -206 
L 1606 56 
L 191 3500 
L 800 3500 
L 1894 763 
L 2988 3500 
L 3597 3500 
L 2059 -325 
z
" id="DejaVuSans-79" transform="scale(0.015625)"/>
       <path d="M 1259 2228 
L 1259 519 
L 2272 519 
Q 2781 519 3026 730 
Q 3272 941 3272 1375 
Q 3272 1813 3026 2020 
Q 2781 2228 2272 2228 
L 1259 2228 
z
M 1259 4147 
L 1259 2741 
L 2194 2741 
Q 2656 2741 2882 2914 
Q 3109 3088 3109 3444 
Q 3109 3797 2882 3972 
Q 2656 4147 2194 4147 
L 1259 4147 
z
M 628 4666 
L 2241 4666 
Q 2963 4666 3353 4366 
Q 3744 4066 3744 3513 
Q 3744 3084 3544 2831 
Q 3344 2578 2956 2516 
Q 3422 2416 3680 2098 
Q 3938 1781 3938 1306 
Q 3938 681 3513 340 
Q 3088 0 2303 0 
L 628 0 
L 628 4666 
z
" id="DejaVuSans-42" transform="scale(0.015625)"/>
      </defs>
      <use xlink:href="#DejaVuSans-4d"/>
      <use x="86.279297" xlink:href="#DejaVuSans-65"/>
      <use x="147.802734" xlink:href="#DejaVuSans-6d"/>
      <use x="245.214844" xlink:href="#DejaVuSans-6f"/>
      <use x="306.396484" xlink:href="#DejaVuSans-72"/>
      <use x="347.509766" xlink:href="#DejaVuSans-79"/>
      <use x="406.689453" xlink:href="#DejaVuSans-20"/>
      <use x="438.476562" xlink:href="#DejaVuSans-20"/>
      <use x="470.263672" xlink:href="#DejaVuSans-5b"/>
      <use x="509.277344" xlink:href="#DejaVuSans-4d"/>
      <use x="595.556641" xlink:href="#DejaVuSans-42"/>
      <use x="664.160156" xlink:href="#DejaVuSans-5d"/>
     </g>
    </g>
   </g>
   <g id="line2d_38">
    <path clip-path="url(#p436e2e7d71)" d="M 65.769034 330.912193 
L 99.587216 326.96365 
L 133.405398 323.986665 
L 167.22358 324.244653 
L 201.041761 325.118833 
L 234.859943 324.448127 
L 268.678125 323.821391 
L 302.496307 324.170831 
L 336.314489 324.207731 
L 370.13267 325.193814 
L 403.950852 289.420206 
L 437.769034 285.542512 
L 471.587216 284.658656 
" style="fill:none;stroke:#000000;stroke-dasharray:1.5,0;stroke-dashoffset:0;stroke-width:1.5;"/>
    <defs>
     <path d="M 3 0 
L -3 -3 
L -3 3 
z
" id="m4d16d2d23f" style="stroke:#ffffff;stroke-linejoin:miter;stroke-width:0.75;"/>
    </defs>
    <g clip-path="url(#p436e2e7d71)">
     <use style="stroke:#ffffff;stroke-linejoin:miter;stroke-width:0.75;" x="65.769034" xlink:href="#m4d16d2d23f" y="330.912193"/>
     <use style="stroke:#ffffff;stroke-linejoin:miter;stroke-width:0.75;" x="99.587216" xlink:href="#m4d16d2d23f" y="326.96365"/>
     <use style="stroke:#ffffff;stroke-linejoin:miter;stroke-width:0.75;" x="133.405398" xlink:href="#m4d16d2d23f" y="323.986665"/>
     <use style="stroke:#ffffff;stroke-linejoin:miter;stroke-width:0.75;" x="167.22358" xlink:href="#m4d16d2d23f" y="324.244653"/>
     <use style="stroke:#ffffff;stroke-linejoin:miter;stroke-width:0.75;" x="201.041761" xlink:href="#m4d16d2d23f" y="325.118833"/>
     <use style="stroke:#ffffff;stroke-linejoin:miter;stroke-width:0.75;" x="234.859943" xlink:href="#m4d16d2d23f" y="324.448127"/>
     <use style="stroke:#ffffff;stroke-linejoin:miter;stroke-width:0.75;" x="268.678125" xlink:href="#m4d16d2d23f" y="323.821391"/>
     <use style="stroke:#ffffff;stroke-linejoin:miter;stroke-width:0.75;" x="302.496307" xlink:href="#m4d16d2d23f" y="324.170831"/>
     <use style="stroke:#ffffff;stroke-linejoin:miter;stroke-width:0.75;" x="336.314489" xlink:href="#m4d16d2d23f" y="324.207731"/>
     <use style="stroke:#ffffff;stroke-linejoin:miter;stroke-width:0.75;" x="370.13267" xlink:href="#m4d16d2d23f" y="325.193814"/>
     <use style="stroke:#ffffff;stroke-linejoin:miter;stroke-width:0.75;" x="403.950852" xlink:href="#m4d16d2d23f" y="289.420206"/>
     <use style="stroke:#ffffff;stroke-linejoin:miter;stroke-width:0.75;" x="437.769034" xlink:href="#m4d16d2d23f" y="285.542512"/>
     <use style="stroke:#ffffff;stroke-linejoin:miter;stroke-width:0.75;" x="471.587216" xlink:href="#m4d16d2d23f" y="284.658656"/>
    </g>
   </g>
   <g id="line2d_39">
    <path clip-path="url(#p436e2e7d71)" d="M 65.769034 339.838125 
L 99.587216 330.215701 
L 133.405398 321.553433 
L 167.22358 308.612821 
L 201.041761 291.845064 
L 234.859943 291.682534 
L 268.678125 291.466499 
L 302.496307 291.758327 
L 336.314489 291.736662 
L 370.13267 291.877623 
L 403.950852 291.133151 
L 437.769034 291.790839 
L 471.587216 290.493098 
" style="fill:none;stroke:#000000;stroke-dasharray:1.5,0;stroke-dashoffset:0;stroke-width:1.5;"/>
    <defs>
     <path d="M 0 -3 
L -3 3 
L 3 3 
z
" id="m69cb3ba9d5" style="stroke:#ffffff;stroke-linejoin:miter;stroke-width:0.75;"/>
    </defs>
    <g clip-path="url(#p436e2e7d71)">
     <use style="stroke:#ffffff;stroke-linejoin:miter;stroke-width:0.75;" x="65.769034" xlink:href="#m69cb3ba9d5" y="339.838125"/>
     <use style="stroke:#ffffff;stroke-linejoin:miter;stroke-width:0.75;" x="99.587216" xlink:href="#m69cb3ba9d5" y="330.215701"/>
     <use style="stroke:#ffffff;stroke-linejoin:miter;stroke-width:0.75;" x="133.405398" xlink:href="#m69cb3ba9d5" y="321.553433"/>
     <use style="stroke:#ffffff;stroke-linejoin:miter;stroke-width:0.75;" x="167.22358" xlink:href="#m69cb3ba9d5" y="308.612821"/>
     <use style="stroke:#ffffff;stroke-linejoin:miter;stroke-width:0.75;" x="201.041761" xlink:href="#m69cb3ba9d5" y="291.845064"/>
     <use style="stroke:#ffffff;stroke-linejoin:miter;stroke-width:0.75;" x="234.859943" xlink:href="#m69cb3ba9d5" y="291.682534"/>
     <use style="stroke:#ffffff;stroke-linejoin:miter;stroke-width:0.75;" x="268.678125" xlink:href="#m69cb3ba9d5" y="291.466499"/>
     <use style="stroke:#ffffff;stroke-linejoin:miter;stroke-width:0.75;" x="302.496307" xlink:href="#m69cb3ba9d5" y="291.758327"/>
     <use style="stroke:#ffffff;stroke-linejoin:miter;stroke-width:0.75;" x="336.314489" xlink:href="#m69cb3ba9d5" y="291.736662"/>
     <use style="stroke:#ffffff;stroke-linejoin:miter;stroke-width:0.75;" x="370.13267" xlink:href="#m69cb3ba9d5" y="291.877623"/>
     <use style="stroke:#ffffff;stroke-linejoin:miter;stroke-width:0.75;" x="403.950852" xlink:href="#m69cb3ba9d5" y="291.133151"/>
     <use style="stroke:#ffffff;stroke-linejoin:miter;stroke-width:0.75;" x="437.769034" xlink:href="#m69cb3ba9d5" y="291.790839"/>
     <use style="stroke:#ffffff;stroke-linejoin:miter;stroke-width:0.75;" x="471.587216" xlink:href="#m69cb3ba9d5" y="290.493098"/>
    </g>
   </g>
   <g id="line2d_40">
    <path clip-path="url(#p436e2e7d71)" d="M 65.769034 216.696571 
L 99.587216 210.460113 
L 133.405398 187.303082 
L 167.22358 148.327391 
L 201.041761 124.449137 
L 234.859943 103.38873 
L 268.678125 52.728334 
L 302.496307 45.971432 
L 336.314489 50.747995 
L 370.13267 44.285813 
L 403.950852 37.438125 
L 437.769034 40.0163 
L 471.587216 43.531877 
" style="fill:none;stroke:#17becf;stroke-dasharray:7.5,3;stroke-dashoffset:0;stroke-width:1.5;"/>
    <defs>
     <path d="M -0 4.242641 
L 4.242641 0 
L 0 -4.242641 
L -4.242641 -0 
z
" id="ma64bf4072c" style="stroke:#ffffff;stroke-linejoin:miter;stroke-width:0.75;"/>
    </defs>
    <g clip-path="url(#p436e2e7d71)">
     <use style="fill:#17becf;stroke:#ffffff;stroke-linejoin:miter;stroke-width:0.75;" x="65.769034" xlink:href="#ma64bf4072c" y="216.696571"/>
     <use style="fill:#17becf;stroke:#ffffff;stroke-linejoin:miter;stroke-width:0.75;" x="99.587216" xlink:href="#ma64bf4072c" y="210.460113"/>
     <use style="fill:#17becf;stroke:#ffffff;stroke-linejoin:miter;stroke-width:0.75;" x="133.405398" xlink:href="#ma64bf4072c" y="187.303082"/>
     <use style="fill:#17becf;stroke:#ffffff;stroke-linejoin:miter;stroke-width:0.75;" x="167.22358" xlink:href="#ma64bf4072c" y="148.327391"/>
     <use style="fill:#17becf;stroke:#ffffff;stroke-linejoin:miter;stroke-width:0.75;" x="201.041761" xlink:href="#ma64bf4072c" y="124.449137"/>
     <use style="fill:#17becf;stroke:#ffffff;stroke-linejoin:miter;stroke-width:0.75;" x="234.859943" xlink:href="#ma64bf4072c" y="103.38873"/>
     <use style="fill:#17becf;stroke:#ffffff;stroke-linejoin:miter;stroke-width:0.75;" x="268.678125" xlink:href="#ma64bf4072c" y="52.728334"/>
     <use style="fill:#17becf;stroke:#ffffff;stroke-linejoin:miter;stroke-width:0.75;" x="302.496307" xlink:href="#ma64bf4072c" y="45.971432"/>
     <use style="fill:#17becf;stroke:#ffffff;stroke-linejoin:miter;stroke-width:0.75;" x="336.314489" xlink:href="#ma64bf4072c" y="50.747995"/>
     <use style="fill:#17becf;stroke:#ffffff;stroke-linejoin:miter;stroke-width:0.75;" x="370.13267" xlink:href="#ma64bf4072c" y="44.285813"/>
     <use style="fill:#17becf;stroke:#ffffff;stroke-linejoin:miter;stroke-width:0.75;" x="403.950852" xlink:href="#ma64bf4072c" y="37.438125"/>
     <use style="fill:#17becf;stroke:#ffffff;stroke-linejoin:miter;stroke-width:0.75;" x="437.769034" xlink:href="#ma64bf4072c" y="40.0163"/>
     <use style="fill:#17becf;stroke:#ffffff;stroke-linejoin:miter;stroke-width:0.75;" x="471.587216" xlink:href="#ma64bf4072c" y="43.531877"/>
    </g>
   </g>
   <g id="line2d_41">
    <path clip-path="url(#p436e2e7d71)" d="M 65.769034 310.014714 
L 99.587216 309.956262 
L 133.405398 309.824949 
L 167.22358 310.337208 
L 201.041761 310.425458 
L 234.859943 310.175747 
L 268.678125 310.175747 
L 302.496307 309.868688 
L 336.314489 310.117141 
L 370.13267 310.263764 
L 403.950852 306.824807 
L 437.769034 302.332811 
L 471.587216 302.062761 
" style="fill:none;stroke:#17becf;stroke-dasharray:7.5,3;stroke-dashoffset:0;stroke-width:1.5;"/>
    <defs>
     <path d="M 0 3 
C 0.795609 3 1.55874 2.683901 2.12132 2.12132 
C 2.683901 1.55874 3 0.795609 3 0 
C 3 -0.795609 2.683901 -1.55874 2.12132 -2.12132 
C 1.55874 -2.683901 0.795609 -3 0 -3 
C -0.795609 -3 -1.55874 -2.683901 -2.12132 -2.12132 
C -2.683901 -1.55874 -3 -0.795609 -3 0 
C -3 0.795609 -2.683901 1.55874 -2.12132 2.12132 
C -1.55874 2.683901 -0.795609 3 0 3 
z
" id="m8cf84ec94e" style="stroke:#ffffff;stroke-width:0.75;"/>
    </defs>
    <g clip-path="url(#p436e2e7d71)">
     <use style="fill:#17becf;stroke:#ffffff;stroke-width:0.75;" x="65.769034" xlink:href="#m8cf84ec94e" y="310.014714"/>
     <use style="fill:#17becf;stroke:#ffffff;stroke-width:0.75;" x="99.587216" xlink:href="#m8cf84ec94e" y="309.956262"/>
     <use style="fill:#17becf;stroke:#ffffff;stroke-width:0.75;" x="133.405398" xlink:href="#m8cf84ec94e" y="309.824949"/>
     <use style="fill:#17becf;stroke:#ffffff;stroke-width:0.75;" x="167.22358" xlink:href="#m8cf84ec94e" y="310.337208"/>
     <use style="fill:#17becf;stroke:#ffffff;stroke-width:0.75;" x="201.041761" xlink:href="#m8cf84ec94e" y="310.425458"/>
     <use style="fill:#17becf;stroke:#ffffff;stroke-width:0.75;" x="234.859943" xlink:href="#m8cf84ec94e" y="310.175747"/>
     <use style="fill:#17becf;stroke:#ffffff;stroke-width:0.75;" x="268.678125" xlink:href="#m8cf84ec94e" y="310.175747"/>
     <use style="fill:#17becf;stroke:#ffffff;stroke-width:0.75;" x="302.496307" xlink:href="#m8cf84ec94e" y="309.868688"/>
     <use style="fill:#17becf;stroke:#ffffff;stroke-width:0.75;" x="336.314489" xlink:href="#m8cf84ec94e" y="310.117141"/>
     <use style="fill:#17becf;stroke:#ffffff;stroke-width:0.75;" x="370.13267" xlink:href="#m8cf84ec94e" y="310.263764"/>
     <use style="fill:#17becf;stroke:#ffffff;stroke-width:0.75;" x="403.950852" xlink:href="#m8cf84ec94e" y="306.824807"/>
     <use style="fill:#17becf;stroke:#ffffff;stroke-width:0.75;" x="437.769034" xlink:href="#m8cf84ec94e" y="302.332811"/>
     <use style="fill:#17becf;stroke:#ffffff;stroke-width:0.75;" x="471.587216" xlink:href="#m8cf84ec94e" y="302.062761"/>
    </g>
   </g>
   <g id="line2d_42">
    <path clip-path="url(#p436e2e7d71)" d="M 65.769034 256.971426 
L 99.587216 256.965305 
L 133.405398 257.020413 
L 167.22358 256.898018 
L 201.041761 256.891905 
L 234.859943 257.026539 
L 268.678125 257.087835 
L 302.496307 257.623726 
L 336.314489 256.995914 
L 370.13267 257.06944 
L 403.950852 244.08264 
L 437.769034 221.892408 
L 471.587216 207.476317 
" style="fill:none;stroke:#8c564b;stroke-dasharray:7.5,3;stroke-dashoffset:0;stroke-width:1.5;"/>
    <defs>
     <path d="M 0 3 
C 0.795609 3 1.55874 2.683901 2.12132 2.12132 
C 2.683901 1.55874 3 0.795609 3 0 
C 3 -0.795609 2.683901 -1.55874 2.12132 -2.12132 
C 1.55874 -2.683901 0.795609 -3 0 -3 
C -0.795609 -3 -1.55874 -2.683901 -2.12132 -2.12132 
C -2.683901 -1.55874 -3 -0.795609 -3 0 
C -3 0.795609 -2.683901 1.55874 -2.12132 2.12132 
C -1.55874 2.683901 -0.795609 3 0 3 
z
" id="m230b2d3d13" style="stroke:#ffffff;stroke-width:0.75;"/>
    </defs>
    <g clip-path="url(#p436e2e7d71)">
     <use style="fill:#8c564b;stroke:#ffffff;stroke-width:0.75;" x="65.769034" xlink:href="#m230b2d3d13" y="256.971426"/>
     <use style="fill:#8c564b;stroke:#ffffff;stroke-width:0.75;" x="99.587216" xlink:href="#m230b2d3d13" y="256.965305"/>
     <use style="fill:#8c564b;stroke:#ffffff;stroke-width:0.75;" x="133.405398" xlink:href="#m230b2d3d13" y="257.020413"/>
     <use style="fill:#8c564b;stroke:#ffffff;stroke-width:0.75;" x="167.22358" xlink:href="#m230b2d3d13" y="256.898018"/>
     <use style="fill:#8c564b;stroke:#ffffff;stroke-width:0.75;" x="201.041761" xlink:href="#m230b2d3d13" y="256.891905"/>
     <use style="fill:#8c564b;stroke:#ffffff;stroke-width:0.75;" x="234.859943" xlink:href="#m230b2d3d13" y="257.026539"/>
     <use style="fill:#8c564b;stroke:#ffffff;stroke-width:0.75;" x="268.678125" xlink:href="#m230b2d3d13" y="257.087835"/>
     <use style="fill:#8c564b;stroke:#ffffff;stroke-width:0.75;" x="302.496307" xlink:href="#m230b2d3d13" y="257.623726"/>
     <use style="fill:#8c564b;stroke:#ffffff;stroke-width:0.75;" x="336.314489" xlink:href="#m230b2d3d13" y="256.995914"/>
     <use style="fill:#8c564b;stroke:#ffffff;stroke-width:0.75;" x="370.13267" xlink:href="#m230b2d3d13" y="257.06944"/>
     <use style="fill:#8c564b;stroke:#ffffff;stroke-width:0.75;" x="403.950852" xlink:href="#m230b2d3d13" y="244.08264"/>
     <use style="fill:#8c564b;stroke:#ffffff;stroke-width:0.75;" x="437.769034" xlink:href="#m230b2d3d13" y="221.892408"/>
     <use style="fill:#8c564b;stroke:#ffffff;stroke-width:0.75;" x="471.587216" xlink:href="#m230b2d3d13" y="207.476317"/>
    </g>
   </g>
   <g id="line2d_43"/>
   <g id="line2d_44"/>
   <g id="line2d_45"/>
   <g id="line2d_46"/>
   <g id="line2d_47"/>
   <g id="patch_3">
    <path d="M 45.478125 354.958125 
L 45.478125 22.318125 
" style="fill:none;stroke:#000000;stroke-linecap:square;stroke-linejoin:miter;stroke-width:0.8;"/>
   </g>
   <g id="patch_4">
    <path d="M 491.878125 354.958125 
L 491.878125 22.318125 
" style="fill:none;stroke:#000000;stroke-linecap:square;stroke-linejoin:miter;stroke-width:0.8;"/>
   </g>
   <g id="patch_5">
    <path d="M 45.478125 354.958125 
L 491.878125 354.958125 
" style="fill:none;stroke:#000000;stroke-linecap:square;stroke-linejoin:miter;stroke-width:0.8;"/>
   </g>
   <g id="patch_6">
    <path d="M 45.478125 22.318125 
L 491.878125 22.318125 
" style="fill:none;stroke:#000000;stroke-linecap:square;stroke-linejoin:miter;stroke-width:0.8;"/>
   </g>
   <g id="text_19">
    <!-- Memory:  Conversions -->
    <g transform="translate(202.110938 16.318125)scale(0.12 -0.12)">
     <defs>
      <path d="M 750 794 
L 1409 794 
L 1409 0 
L 750 0 
L 750 794 
z
M 750 3309 
L 1409 3309 
L 1409 2516 
L 750 2516 
L 750 3309 
z
" id="DejaVuSans-3a" transform="scale(0.015625)"/>
      <path d="M 4122 4306 
L 4122 3641 
Q 3803 3938 3442 4084 
Q 3081 4231 2675 4231 
Q 1875 4231 1450 3742 
Q 1025 3253 1025 2328 
Q 1025 1406 1450 917 
Q 1875 428 2675 428 
Q 3081 428 3442 575 
Q 3803 722 4122 1019 
L 4122 359 
Q 3791 134 3420 21 
Q 3050 -91 2638 -91 
Q 1578 -91 968 557 
Q 359 1206 359 2328 
Q 359 3453 968 4101 
Q 1578 4750 2638 4750 
Q 3056 4750 3426 4639 
Q 3797 4528 4122 4306 
z
" id="DejaVuSans-43" transform="scale(0.015625)"/>
      <path d="M 191 3500 
L 800 3500 
L 1894 563 
L 2988 3500 
L 3597 3500 
L 2284 0 
L 1503 0 
L 191 3500 
z
" id="DejaVuSans-76" transform="scale(0.015625)"/>
     </defs>
     <use xlink:href="#DejaVuSans-4d"/>
     <use x="86.279297" xlink:href="#DejaVuSans-65"/>
     <use x="147.802734" xlink:href="#DejaVuSans-6d"/>
     <use x="245.214844" xlink:href="#DejaVuSans-6f"/>
     <use x="306.396484" xlink:href="#DejaVuSans-72"/>
     <use x="347.509766" xlink:href="#DejaVuSans-79"/>
     <use x="399.439453" xlink:href="#DejaVuSans-3a"/>
     <use x="433.130859" xlink:href="#DejaVuSans-20"/>
     <use x="464.917969" xlink:href="#DejaVuSans-20"/>
     <use x="496.705078" xlink:href="#DejaVuSans-43"/>
     <use x="566.529297" xlink:href="#DejaVuSans-6f"/>
     <use x="627.710938" xlink:href="#DejaVuSans-6e"/>
     <use x="691.089844" xlink:href="#DejaVuSans-76"/>
     <use x="750.269531" xlink:href="#DejaVuSans-65"/>
     <use x="811.792969" xlink:href="#DejaVuSans-72"/>
     <use x="852.90625" xlink:href="#DejaVuSans-73"/>
     <use x="905.005859" xlink:href="#DejaVuSans-69"/>
     <use x="932.789062" xlink:href="#DejaVuSans-6f"/>
     <use x="993.970703" xlink:href="#DejaVuSans-6e"/>
     <use x="1057.349609" xlink:href="#DejaVuSans-73"/>
    </g>
   </g>
  </g>
 </g>
 <defs>
  <clipPath id="p436e2e7d71">
   <rect height="332.64" width="446.4" x="45.478125" y="22.318125"/>
  </clipPath>
 </defs>
</svg>
